<svg width="62" height="62" viewBox="0 0 62 62" fill="none" xmlns="http://www.w3.org/2000/svg">
<path d="M56.8333 49.0833V56.8333H5.16666V49.0833C5.16666 47.6625 6.32916 46.5 7.74999 46.5H54.25C55.6708 46.5 56.8333 47.6625 56.8333 49.0833Z" fill="white"/>
<path d="M56.8333 49.0833V56.8333H5.16666V49.0833C5.16666 47.6625 6.32916 46.5 7.74999 46.5H54.25C55.6708 46.5 56.8333 47.6625 56.8333 49.0833Z" fill="url(#paint0_linear_229_5122)"/>
<path d="M18.0833 28.417H12.9167V46.5003H18.0833V28.417Z" fill="white"/>
<path d="M18.0833 28.417H12.9167V46.5003H18.0833V28.417Z" fill="url(#paint1_linear_229_5122)"/>
<path d="M28.4167 28.417H23.25V46.5003H28.4167V28.417Z" fill="white"/>
<path d="M28.4167 28.417H23.25V46.5003H28.4167V28.417Z" fill="url(#paint2_linear_229_5122)"/>
<path d="M38.75 28.417H33.5833V46.5003H38.75V28.417Z" fill="white"/>
<path d="M38.75 28.417H33.5833V46.5003H38.75V28.417Z" fill="url(#paint3_linear_229_5122)"/>
<path d="M49.0833 28.417H43.9167V46.5003H49.0833V28.417Z" fill="white"/>
<path d="M49.0833 28.417H43.9167V46.5003H49.0833V28.417Z" fill="url(#paint4_linear_229_5122)"/>
<path d="M59.4167 58.771H2.58334C1.52418 58.771 0.645844 57.8927 0.645844 56.8335C0.645844 55.7743 1.52418 54.896 2.58334 54.896H59.4167C60.4758 54.896 61.3542 55.7743 61.3542 56.8335C61.3542 57.8927 60.4758 58.771 59.4167 58.771Z" fill="white"/>
<path d="M59.4167 58.771H2.58334C1.52418 58.771 0.645844 57.8927 0.645844 56.8335C0.645844 55.7743 1.52418 54.896 2.58334 54.896H59.4167C60.4758 54.896 61.3542 55.7743 61.3542 56.8335C61.3542 57.8927 60.4758 58.771 59.4167 58.771Z" fill="url(#paint5_linear_229_5122)"/>
<path d="M55.2058 14.8544L31.9558 5.55441C31.4392 5.34775 30.5608 5.34775 30.0442 5.55441L6.79416 14.8544C5.88999 15.2161 5.16666 16.2752 5.16666 17.2569V25.8336C5.16666 27.2544 6.32916 28.4169 7.74999 28.4169H54.25C55.6708 28.4169 56.8333 27.2544 56.8333 25.8336V17.2569C56.8333 16.2752 56.11 15.2161 55.2058 14.8544ZM31 21.9586C28.8558 21.9586 27.125 20.2277 27.125 18.0836C27.125 15.9394 28.8558 14.2086 31 14.2086C33.1442 14.2086 34.875 15.9394 34.875 18.0836C34.875 20.2277 33.1442 21.9586 31 21.9586Z" fill="white"/>
<path d="M55.2058 14.8544L31.9558 5.55441C31.4392 5.34775 30.5608 5.34775 30.0442 5.55441L6.79416 14.8544C5.88999 15.2161 5.16666 16.2752 5.16666 17.2569V25.8336C5.16666 27.2544 6.32916 28.4169 7.74999 28.4169H54.25C55.6708 28.4169 56.8333 27.2544 56.8333 25.8336V17.2569C56.8333 16.2752 56.11 15.2161 55.2058 14.8544ZM31 21.9586C28.8558 21.9586 27.125 20.2277 27.125 18.0836C27.125 15.9394 28.8558 14.2086 31 14.2086C33.1442 14.2086 34.875 15.9394 34.875 18.0836C34.875 20.2277 33.1442 21.9586 31 21.9586Z" fill="white"/>
<defs>
<linearGradient id="paint0_linear_229_5122" x1="34.2596" y1="48.05" x2="34.2596" y2="55.9033" gradientUnits="userSpaceOnUse">
<stop stop-color="white"/>
<stop offset="1" stop-color="#3B3B3B"/>
</linearGradient>
<linearGradient id="paint1_linear_229_5122" x1="15.8259" y1="31.1295" x2="15.8259" y2="44.8728" gradientUnits="userSpaceOnUse">
<stop stop-color="white"/>
<stop offset="1" stop-color="#3B3B3B"/>
</linearGradient>
<linearGradient id="paint2_linear_229_5122" x1="26.1593" y1="31.1295" x2="26.1593" y2="44.8728" gradientUnits="userSpaceOnUse">
<stop stop-color="white"/>
<stop offset="1" stop-color="#3B3B3B"/>
</linearGradient>
<linearGradient id="paint3_linear_229_5122" x1="36.4926" y1="31.1295" x2="36.4926" y2="44.8728" gradientUnits="userSpaceOnUse">
<stop stop-color="white"/>
<stop offset="1" stop-color="#3B3B3B"/>
</linearGradient>
<linearGradient id="paint4_linear_229_5122" x1="46.8259" y1="31.1295" x2="46.8259" y2="44.8728" gradientUnits="userSpaceOnUse">
<stop stop-color="white"/>
<stop offset="1" stop-color="#3B3B3B"/>
</linearGradient>
<linearGradient id="paint5_linear_229_5122" x1="34.83" y1="55.4772" x2="34.83" y2="58.4222" gradientUnits="userSpaceOnUse">
<stop stop-color="white"/>
<stop offset="1" stop-color="#3B3B3B"/>
</linearGradient>
</defs>
</svg>
