<svg width="36" height="36" viewBox="0 0 36 36" fill="none" xmlns="http://www.w3.org/2000/svg">
<path d="M31.125 24.75V11.25C32.91 10.5 34.125 8.745 34.125 6.75C34.125 4.065 31.935 1.875 29.25 1.875C27.27 1.875 25.5 3.09 24.75 4.875H11.25C10.5 3.09 8.745 1.875 6.75 1.875C4.065 1.875 1.875 4.065 1.875 6.75C1.875 8.73 3.09 10.5 4.875 11.25V24.75C3.09 25.5 1.875 27.255 1.875 29.25C1.875 31.935 4.065 34.125 6.75 34.125C8.73 34.125 10.5 32.91 11.25 31.125H24.75C25.5 32.91 27.255 34.125 29.25 34.125C31.935 34.125 34.125 31.935 34.125 29.25C34.125 27.27 32.91 25.5 31.125 24.75ZM28.74 24.405C28.575 24.42 28.425 24.45 28.26 24.48C27.855 24.555 27.465 24.69 27.09 24.885C27 24.93 26.91 24.975 26.82 25.035C26.07 25.455 25.455 26.07 25.035 26.82C24.975 26.91 24.93 27 24.885 27.09C24.69 27.465 24.555 27.855 24.48 28.26C24.45 28.425 24.42 28.575 24.405 28.74C24.39 28.785 24.39 28.83 24.39 28.875H11.61C11.58 28.5 11.505 28.14 11.4 27.795C11.37 27.675 11.325 27.54 11.265 27.42C11.22 27.315 11.175 27.21 11.115 27.09C11.07 27 11.025 26.91 10.965 26.82C10.545 26.07 9.93 25.455 9.18 25.035C9.09 24.975 9 24.93 8.91 24.885C8.79 24.825 8.685 24.78 8.58 24.735C8.46 24.675 8.325 24.63 8.205 24.6C7.86 24.495 7.5 24.42 7.125 24.39V11.61C7.515 11.58 7.875 11.505 8.235 11.385C8.37 11.355 8.52 11.295 8.655 11.235C8.73 11.205 8.82 11.16 8.91 11.115C9 11.07 9.09 11.025 9.18 10.965C9.93 10.545 10.545 9.93 10.965 9.18C11.025 9.09 11.07 9 11.115 8.91C11.16 8.82 11.205 8.73 11.235 8.655C11.295 8.52 11.355 8.37 11.385 8.235C11.505 7.875 11.58 7.515 11.61 7.125H24.39C24.42 7.53 24.495 7.905 24.63 8.28C24.66 8.4 24.705 8.535 24.765 8.655C24.795 8.745 24.84 8.82 24.885 8.91C24.93 9 24.975 9.09 25.035 9.18C25.455 9.93 26.07 10.545 26.82 10.965C26.91 11.025 27 11.07 27.09 11.115C27.18 11.16 27.255 11.205 27.345 11.235C27.465 11.295 27.6 11.34 27.72 11.37C28.095 11.505 28.47 11.58 28.875 11.61V24.39C28.83 24.39 28.785 24.39 28.74 24.405Z" fill="white"/>
<path d="M31.125 24.75V11.25C32.91 10.5 34.125 8.745 34.125 6.75C34.125 4.065 31.935 1.875 29.25 1.875C27.27 1.875 25.5 3.09 24.75 4.875H11.25C10.5 3.09 8.745 1.875 6.75 1.875C4.065 1.875 1.875 4.065 1.875 6.75C1.875 8.73 3.09 10.5 4.875 11.25V24.75C3.09 25.5 1.875 27.255 1.875 29.25C1.875 31.935 4.065 34.125 6.75 34.125C8.73 34.125 10.5 32.91 11.25 31.125H24.75C25.5 32.91 27.255 34.125 29.25 34.125C31.935 34.125 34.125 31.935 34.125 29.25C34.125 27.27 32.91 25.5 31.125 24.75ZM28.74 24.405C28.575 24.42 28.425 24.45 28.26 24.48C27.855 24.555 27.465 24.69 27.09 24.885C27 24.93 26.91 24.975 26.82 25.035C26.07 25.455 25.455 26.07 25.035 26.82C24.975 26.91 24.93 27 24.885 27.09C24.69 27.465 24.555 27.855 24.48 28.26C24.45 28.425 24.42 28.575 24.405 28.74C24.39 28.785 24.39 28.83 24.39 28.875H11.61C11.58 28.5 11.505 28.14 11.4 27.795C11.37 27.675 11.325 27.54 11.265 27.42C11.22 27.315 11.175 27.21 11.115 27.09C11.07 27 11.025 26.91 10.965 26.82C10.545 26.07 9.93 25.455 9.18 25.035C9.09 24.975 9 24.93 8.91 24.885C8.79 24.825 8.685 24.78 8.58 24.735C8.46 24.675 8.325 24.63 8.205 24.6C7.86 24.495 7.5 24.42 7.125 24.39V11.61C7.515 11.58 7.875 11.505 8.235 11.385C8.37 11.355 8.52 11.295 8.655 11.235C8.73 11.205 8.82 11.16 8.91 11.115C9 11.07 9.09 11.025 9.18 10.965C9.93 10.545 10.545 9.93 10.965 9.18C11.025 9.09 11.07 9 11.115 8.91C11.16 8.82 11.205 8.73 11.235 8.655C11.295 8.52 11.355 8.37 11.385 8.235C11.505 7.875 11.58 7.515 11.61 7.125H24.39C24.42 7.53 24.495 7.905 24.63 8.28C24.66 8.4 24.705 8.535 24.765 8.655C24.795 8.745 24.84 8.82 24.885 8.91C24.93 9 24.975 9.09 25.035 9.18C25.455 9.93 26.07 10.545 26.82 10.965C26.91 11.025 27 11.07 27.09 11.115C27.18 11.16 27.255 11.205 27.345 11.235C27.465 11.295 27.6 11.34 27.72 11.37C28.095 11.505 28.47 11.58 28.875 11.61V24.39C28.83 24.39 28.785 24.39 28.74 24.405Z" fill="url(#paint0_linear_229_5139)"/>
<defs>
<linearGradient id="paint0_linear_229_5139" x1="20.0346" y1="6.7125" x2="20.0346" y2="31.2225" gradientUnits="userSpaceOnUse">
<stop stop-color="white"/>
<stop offset="1" stop-color="#3B3B3B"/>
</linearGradient>
</defs>
</svg>
