<svg width="80" height="80" viewBox="0 0 80 80" fill="none" xmlns="http://www.w3.org/2000/svg">
<path d="M49.098 6.6665H30.898V21.1998H49.098V6.6665Z" fill="white"/>
<path d="M49.098 6.6665H30.898V21.1998H49.098V6.6665Z" fill="url(#paint0_linear_229_5106)"/>
<path d="M54.102 6.6665V21.1998H72.902C71.202 12.0332 64.4354 6.69984 54.102 6.6665Z" fill="white"/>
<path d="M54.102 6.6665V21.1998H72.902C71.202 12.0332 64.4354 6.69984 54.102 6.6665Z" fill="url(#paint1_linear_229_5106)"/>
<path d="M6.66699 26.2002V53.9669C6.66699 66.1002 13.9003 73.3335 26.0337 73.3335H53.967C66.1003 73.3335 73.3337 66.1002 73.3337 53.9669V26.2002H6.66699ZM48.1337 53.9335L41.2003 57.9335C39.7337 58.7669 38.3003 59.2002 36.967 59.2002C35.967 59.2002 35.067 58.9669 34.2337 58.5002C32.3003 57.4002 31.2337 55.1335 31.2337 52.2002V44.2002C31.2337 41.2669 32.3003 39.0002 34.2337 37.9002C36.167 36.7669 38.6337 36.9669 41.2003 38.4669L48.1337 42.4669C50.7003 43.9335 52.1003 46.0002 52.1003 48.2335C52.1003 50.4669 50.667 52.4335 48.1337 53.9335Z" fill="white"/>
<path d="M6.66699 26.2002V53.9669C6.66699 66.1002 13.9003 73.3335 26.0337 73.3335H53.967C66.1003 73.3335 73.3337 66.1002 73.3337 53.9669V26.2002H6.66699ZM48.1337 53.9335L41.2003 57.9335C39.7337 58.7669 38.3003 59.2002 36.967 59.2002C35.967 59.2002 35.067 58.9669 34.2337 58.5002C32.3003 57.4002 31.2337 55.1335 31.2337 52.2002V44.2002C31.2337 41.2669 32.3003 39.0002 34.2337 37.9002C36.167 36.7669 38.6337 36.9669 41.2003 38.4669L48.1337 42.4669C50.7003 43.9335 52.1003 46.0002 52.1003 48.2335C52.1003 50.4669 50.667 52.4335 48.1337 53.9335Z" fill="url(#paint2_linear_229_5106)"/>
<path d="M25.9 6.6665C15.5666 6.69984 8.79998 12.0332 7.09998 21.1998H25.9V6.6665Z" fill="white"/>
<path d="M25.9 6.6665C15.5666 6.69984 8.79998 12.0332 7.09998 21.1998H25.9V6.6665Z" fill="url(#paint3_linear_229_5106)"/>
<defs>
<linearGradient id="paint0_linear_229_5106" x1="41.1462" y1="8.8465" x2="41.1462" y2="19.8918" gradientUnits="userSpaceOnUse">
<stop stop-color="white"/>
<stop offset="1" stop-color="#3B3B3B"/>
</linearGradient>
<linearGradient id="paint1_linear_229_5106" x1="64.6881" y1="8.8465" x2="64.6881" y2="19.8918" gradientUnits="userSpaceOnUse">
<stop stop-color="white"/>
<stop offset="1" stop-color="#3B3B3B"/>
</linearGradient>
<linearGradient id="paint2_linear_229_5106" x1="44.2062" y1="33.2702" x2="44.2062" y2="69.0915" gradientUnits="userSpaceOnUse">
<stop stop-color="white"/>
<stop offset="1" stop-color="#3B3B3B"/>
</linearGradient>
<linearGradient id="paint3_linear_229_5106" x1="17.686" y1="8.8465" x2="17.686" y2="19.8918" gradientUnits="userSpaceOnUse">
<stop stop-color="white"/>
<stop offset="1" stop-color="#3B3B3B"/>
</linearGradient>
</defs>
</svg>
