<svg width="67" height="68" viewBox="0 0 67 68" fill="none" xmlns="http://www.w3.org/2000/svg">
<path d="M57.6675 4.75H49.5825C46.09 4.75 44 6.84 44 10.3325V18.4175C44 21.91 46.09 24 49.5825 24H57.6675C61.16 24 63.25 21.91 63.25 18.4175V10.3325C63.25 6.84 61.16 4.75 57.6675 4.75ZM59.4275 14.87C58.41 18.115 54.8625 19.875 53.625 19.875C52.3875 19.875 48.8675 18.17 47.8225 14.87C47.6575 14.375 47.575 13.825 47.575 13.3025C47.575 11.515 48.4825 9.6725 50.38 9.0675C51.5075 8.71 52.7175 8.9025 53.57 9.6175C54.45 8.93 55.66 8.71 56.815 9.0675C59.345 9.865 60.1425 12.6975 59.4275 14.87Z" fill="white"/>
<path d="M57.6675 4.75H49.5825C46.09 4.75 44 6.84 44 10.3325V18.4175C44 21.91 46.09 24 49.5825 24H57.6675C61.16 24 63.25 21.91 63.25 18.4175V10.3325C63.25 6.84 61.16 4.75 57.6675 4.75ZM59.4275 14.87C58.41 18.115 54.8625 19.875 53.625 19.875C52.3875 19.875 48.8675 18.17 47.8225 14.87C47.6575 14.375 47.575 13.825 47.575 13.3025C47.575 11.515 48.4825 9.6725 50.38 9.0675C51.5075 8.71 52.7175 8.9025 53.57 9.6175C54.45 8.93 55.66 8.71 56.815 9.0675C59.345 9.865 60.1425 12.6975 59.4275 14.87Z" fill="url(#paint0_linear_229_5131)"/>
<path d="M49.5825 28.125C44.22 28.125 39.875 23.78 39.875 18.4175V10.25C39.875 8.7375 38.6375 7.5 37.125 7.5H19.25C11.66 7.5 5.5 13.6325 5.5 21.195V40.3625C5.5 47.9525 11.66 54.1125 19.25 54.1125H23.375C24.145 54.1125 25.135 54.6075 25.575 55.2125L29.7 60.685C31.515 63.105 34.485 63.105 36.3 60.685L40.425 55.2125C40.9475 54.525 41.7725 54.1125 42.625 54.1125H46.7775C54.3675 54.1125 60.5 47.98 60.5 40.39V30.875C60.5 29.3625 59.2625 28.125 57.75 28.125H49.5825ZM22 35C20.46 35 19.25 33.7625 19.25 32.25C19.25 30.7375 20.46 29.5 22 29.5C23.5125 29.5 24.75 30.7375 24.75 32.25C24.75 33.7625 23.54 35 22 35ZM33 35C31.46 35 30.25 33.7625 30.25 32.25C30.25 30.7375 31.46 29.5 33 29.5C34.5125 29.5 35.75 30.7375 35.75 32.25C35.75 33.7625 34.54 35 33 35Z" fill="white"/>
<path d="M49.5825 28.125C44.22 28.125 39.875 23.78 39.875 18.4175V10.25C39.875 8.7375 38.6375 7.5 37.125 7.5H19.25C11.66 7.5 5.5 13.6325 5.5 21.195V40.3625C5.5 47.9525 11.66 54.1125 19.25 54.1125H23.375C24.145 54.1125 25.135 54.6075 25.575 55.2125L29.7 60.685C31.515 63.105 34.485 63.105 36.3 60.685L40.425 55.2125C40.9475 54.525 41.7725 54.1125 42.625 54.1125H46.7775C54.3675 54.1125 60.5 47.98 60.5 40.39V30.875C60.5 29.3625 59.2625 28.125 57.75 28.125H49.5825ZM22 35C20.46 35 19.25 33.7625 19.25 32.25C19.25 30.7375 20.46 29.5 22 29.5C23.5125 29.5 24.75 30.7375 24.75 32.25C24.75 33.7625 23.54 35 22 35ZM33 35C31.46 35 30.25 33.7625 30.25 32.25C30.25 30.7375 31.46 29.5 33 29.5C34.5125 29.5 35.75 30.7375 35.75 32.25C35.75 33.7625 34.54 35 33 35Z" fill="url(#paint1_linear_229_5131)"/>
<defs>
<linearGradient id="paint0_linear_229_5131" x1="54.8395" y1="7.6375" x2="54.8395" y2="22.2675" gradientUnits="userSpaceOnUse">
<stop stop-color="white"/>
<stop offset="1" stop-color="#3B3B3B"/>
</linearGradient>
<linearGradient id="paint1_linear_229_5131" x1="36.4699" y1="15.75" x2="36.4699" y2="57.55" gradientUnits="userSpaceOnUse">
<stop stop-color="white"/>
<stop offset="1" stop-color="#3B3B3B"/>
</linearGradient>
</defs>
</svg>
