<svg width="56" height="56" viewBox="0 0 56 56" fill="none" xmlns="http://www.w3.org/2000/svg">
<path d="M27.1441 24.7803C25.5138 24.7803 24.1281 26.166 24.1281 27.7963C24.1281 29.4266 25.5138 30.8123 27.1441 30.8123C28.7743 30.8123 30.1601 29.4266 30.1601 27.7963C30.1601 26.166 28.8559 24.7803 27.1441 24.7803Z" fill="#030000"/>
<path d="M33.4207 11.0861H20.9491C18.7482 16.8736 17.3625 25.514 17.3625 35.2957C17.3625 39.2899 17.607 43.2025 18.0146 46.7076C18.0146 47.0337 18.0961 47.3598 18.0961 47.6043H36.1922C36.2737 47.1152 36.3552 46.5446 36.3552 45.974C36.7628 42.7135 36.9258 39.2084 36.9258 35.5402V35.2142C37.0073 25.5956 35.6216 16.8736 33.4207 11.0861ZM27.1441 31.8721C24.8617 31.8721 23.0684 30.0788 23.0684 27.7964C23.0684 25.514 24.8617 23.7207 27.1441 23.7207C29.4265 23.7207 31.2198 25.514 31.2198 27.7964C31.3013 30.0788 29.4265 31.8721 27.1441 31.8721ZM35.051 52.6582H19.3188L18.1776 48.1749H36.1922L35.051 52.6582ZM44.3435 38.2302L43.5284 49.6421L36.9258 46.4631V46.1371C37.3333 42.8765 37.4964 39.3714 37.4964 35.7033L44.3435 38.2302ZM27.1441 3.34229C29.508 3.34229 31.7089 6.03224 33.4207 10.5155H20.9491C22.6609 6.03224 24.7802 3.34229 27.1441 3.34229ZM10.1892 38.4747L16.7919 35.2957C16.7919 39.2899 17.0364 43.2025 17.444 46.7076L9.9447 49.5606L10.1892 38.4747Z" fill="#030000"/>
<path d="M33.4207 11.0861H20.9491C18.7482 16.8736 17.3625 25.514 17.3625 35.2957C17.3625 39.2899 17.607 43.2025 18.0146 46.7076C18.0146 47.0337 18.0961 47.3598 18.0961 47.6043H36.1922C36.2737 47.1152 36.3552 46.5446 36.3552 45.974C36.7628 42.7135 36.9258 39.2084 36.9258 35.5402V35.2142C37.0073 25.5956 35.6216 16.8736 33.4207 11.0861ZM27.1441 31.8721C24.8617 31.8721 23.0684 30.0788 23.0684 27.7964C23.0684 25.514 24.8617 23.7207 27.1441 23.7207C29.4265 23.7207 31.2198 25.514 31.2198 27.7964C31.3013 30.0788 29.4265 31.8721 27.1441 31.8721ZM35.051 52.6582H19.3188L18.1776 48.1749H36.1922L35.051 52.6582ZM44.3435 38.2302L43.5284 49.6421L36.9258 46.4631V46.1371C37.3333 42.8765 37.4964 39.3714 37.4964 35.7033L44.3435 38.2302ZM27.1441 3.34229C29.508 3.34229 31.7089 6.03224 33.4207 10.5155H20.9491C22.6609 6.03224 24.7802 3.34229 27.1441 3.34229ZM10.1892 38.4747L16.7919 35.2957C16.7919 39.2899 17.0364 43.2025 17.444 46.7076L9.9447 49.5606L10.1892 38.4747Z" fill="url(#paint0_linear_229_5142)"/>
<defs>
<linearGradient id="paint0_linear_229_5142" x1="29.3143" y1="10.7397" x2="29.3143" y2="48.2197" gradientUnits="userSpaceOnUse">
<stop stop-color="white"/>
<stop offset="1" stop-color="#3B3B3B"/>
</linearGradient>
</defs>
</svg>
