<svg width="68" height="68" viewBox="0 0 68 68" fill="none" xmlns="http://www.w3.org/2000/svg">
<path d="M39.4097 22.3882H28.563C25.1479 22.3882 22.3611 25.1476 22.3611 28.5901V39.4368C22.3611 42.8519 25.1205 45.6387 28.563 45.6387H39.4097C42.8248 45.6387 45.6116 42.8793 45.6116 39.4368V28.5901C45.6116 25.1476 42.8522 22.3882 39.4097 22.3882ZM38.0982 36.6773L35.6666 40.9121C35.3114 41.5405 34.6557 41.8684 34 41.8684C33.6722 41.8684 33.317 41.7864 33.0438 41.6225C32.1148 41.1034 31.787 39.9285 32.3334 38.9996L34.082 35.9669H32.552C31.3225 35.9669 30.3116 35.4205 29.7652 34.4916C29.2188 33.5626 29.2734 32.4151 29.9018 31.3496L32.3334 27.1148C32.8798 26.1859 34.0547 25.8853 34.9563 26.4044C35.8852 26.9235 36.213 28.0984 35.6666 29.0273L33.918 32.06H35.448C36.6775 32.06 37.6884 32.6064 38.2348 33.5353C38.7813 34.4643 38.7266 35.6118 38.0982 36.6773Z" fill="white"/>
<path d="M39.4097 22.3882H28.563C25.1479 22.3882 22.3611 25.1476 22.3611 28.5901V39.4368C22.3611 42.8519 25.1205 45.6387 28.563 45.6387H39.4097C42.8248 45.6387 45.6116 42.8793 45.6116 39.4368V28.5901C45.6116 25.1476 42.8522 22.3882 39.4097 22.3882ZM38.0982 36.6773L35.6666 40.9121C35.3114 41.5405 34.6557 41.8684 34 41.8684C33.6722 41.8684 33.317 41.7864 33.0438 41.6225C32.1148 41.1034 31.787 39.9285 32.3334 38.9996L34.082 35.9669H32.552C31.3225 35.9669 30.3116 35.4205 29.7652 34.4916C29.2188 33.5626 29.2734 32.4151 29.9018 31.3496L32.3334 27.1148C32.8798 26.1859 34.0547 25.8853 34.9563 26.4044C35.8852 26.9235 36.213 28.0984 35.6666 29.0273L33.918 32.06H35.448C36.6775 32.06 37.6884 32.6064 38.2348 33.5353C38.7813 34.4643 38.7266 35.6118 38.0982 36.6773Z" fill="url(#paint0_linear_229_5118)"/>
<path d="M59.2723 36.0492C60.4198 36.0492 61.3214 35.1203 61.3214 34.0001C61.3214 32.8526 60.4198 31.951 59.2723 31.951H55.8572V25.9403H59.2723C60.4198 25.9403 61.3214 25.0387 61.3214 23.8912C61.3214 22.771 60.4198 21.8421 59.2723 21.8421H55.2288C53.9173 17.498 50.5022 14.0828 46.1581 12.7714V8.72782C46.1581 7.60764 45.2291 6.67871 44.1089 6.67871C42.9888 6.67871 42.0598 7.60764 42.0598 8.72782V12.143H36.0491V8.72782C36.0491 7.60764 35.1202 6.67871 34 6.67871C32.8798 6.67871 31.9509 7.60764 31.9509 8.72782V12.143H25.9675V8.72782C25.9675 7.60764 25.0386 6.67871 23.9184 6.67871C22.7709 6.67871 21.8693 7.60764 21.8693 8.72782V12.7714C17.4979 14.0828 14.0827 17.498 12.7713 21.8421H8.7277C7.60752 21.8421 6.67859 22.771 6.67859 23.8912C6.67859 25.0387 7.60752 25.9403 8.7277 25.9403H12.1429V31.951H8.7277C7.60752 31.951 6.67859 32.8526 6.67859 34.0001C6.67859 35.1203 7.60752 36.0492 8.7277 36.0492H12.1429V42.06H8.7277C7.60752 42.06 6.67859 42.9616 6.67859 44.1091C6.67859 45.2292 7.60752 46.1582 8.7277 46.1582H12.7713C14.0554 50.5023 17.4979 53.9175 21.8693 55.2289V59.2725C21.8693 60.3926 22.7709 61.3216 23.9184 61.3216C25.0386 61.3216 25.9675 60.3926 25.9675 59.2725V55.8573H31.9782V59.2725C31.9782 60.3926 32.8798 61.3216 34.0273 61.3216C35.1475 61.3216 36.0764 60.3926 36.0764 59.2725V55.8573H42.0598V59.2725C42.0598 60.3926 42.9888 61.3216 44.1089 61.3216C45.2291 61.3216 46.1581 60.3926 46.1581 59.2725V55.2289C50.5022 53.9175 53.9173 50.5023 55.2288 46.1582H59.2723C60.4198 46.1582 61.3214 45.2292 61.3214 44.1091C61.3214 42.9616 60.4198 42.06 59.2723 42.06H55.8572V36.0492H59.2723ZM48.3711 40.1748C48.3711 44.6828 44.6827 48.3712 40.1747 48.3712H27.8254C23.3173 48.3712 19.6289 44.6828 19.6289 40.1748V27.8255C19.6289 23.3175 23.3173 19.6291 27.8254 19.6291H40.1747C44.6827 19.6291 48.3711 23.3175 48.3711 27.8255V40.1748Z" fill="white"/>
<path d="M59.2723 36.0492C60.4198 36.0492 61.3214 35.1203 61.3214 34.0001C61.3214 32.8526 60.4198 31.951 59.2723 31.951H55.8572V25.9403H59.2723C60.4198 25.9403 61.3214 25.0387 61.3214 23.8912C61.3214 22.771 60.4198 21.8421 59.2723 21.8421H55.2288C53.9173 17.498 50.5022 14.0828 46.1581 12.7714V8.72782C46.1581 7.60764 45.2291 6.67871 44.1089 6.67871C42.9888 6.67871 42.0598 7.60764 42.0598 8.72782V12.143H36.0491V8.72782C36.0491 7.60764 35.1202 6.67871 34 6.67871C32.8798 6.67871 31.9509 7.60764 31.9509 8.72782V12.143H25.9675V8.72782C25.9675 7.60764 25.0386 6.67871 23.9184 6.67871C22.7709 6.67871 21.8693 7.60764 21.8693 8.72782V12.7714C17.4979 14.0828 14.0827 17.498 12.7713 21.8421H8.7277C7.60752 21.8421 6.67859 22.771 6.67859 23.8912C6.67859 25.0387 7.60752 25.9403 8.7277 25.9403H12.1429V31.951H8.7277C7.60752 31.951 6.67859 32.8526 6.67859 34.0001C6.67859 35.1203 7.60752 36.0492 8.7277 36.0492H12.1429V42.06H8.7277C7.60752 42.06 6.67859 42.9616 6.67859 44.1091C6.67859 45.2292 7.60752 46.1582 8.7277 46.1582H12.7713C14.0554 50.5023 17.4979 53.9175 21.8693 55.2289V59.2725C21.8693 60.3926 22.7709 61.3216 23.9184 61.3216C25.0386 61.3216 25.9675 60.3926 25.9675 59.2725V55.8573H31.9782V59.2725C31.9782 60.3926 32.8798 61.3216 34.0273 61.3216C35.1475 61.3216 36.0764 60.3926 36.0764 59.2725V55.8573H42.0598V59.2725C42.0598 60.3926 42.9888 61.3216 44.1089 61.3216C45.2291 61.3216 46.1581 60.3926 46.1581 59.2725V55.2289C50.5022 53.9175 53.9173 50.5023 55.2288 46.1582H59.2723C60.4198 46.1582 61.3214 45.2292 61.3214 44.1091C61.3214 42.9616 60.4198 42.06 59.2723 42.06H55.8572V36.0492H59.2723ZM48.3711 40.1748C48.3711 44.6828 44.6827 48.3712 40.1747 48.3712H27.8254C23.3173 48.3712 19.6289 44.6828 19.6289 40.1748V27.8255C19.6289 23.3175 23.3173 19.6291 27.8254 19.6291H40.1747C44.6827 19.6291 48.3711 23.3175 48.3711 27.8255V40.1748Z" fill="url(#paint1_linear_229_5118)"/>
<defs>
<linearGradient id="paint0_linear_229_5118" x1="35.4532" y1="25.8758" x2="35.4532" y2="43.5462" gradientUnits="userSpaceOnUse">
<stop stop-color="white"/>
<stop offset="1" stop-color="#3B3B3B"/>
</linearGradient>
<linearGradient id="paint1_linear_229_5118" x1="37.4474" y1="14.8751" x2="37.4474" y2="56.4037" gradientUnits="userSpaceOnUse">
<stop stop-color="white"/>
<stop offset="1" stop-color="#3B3B3B"/>
</linearGradient>
</defs>
</svg>
