<svg width="59" height="44" viewBox="0 0 59 44" fill="none" xmlns="http://www.w3.org/2000/svg">
<path d="M43.02 43.184V43.388H31.46C31.1427 42.3 30.7573 41.0533 30.304 39.648C29.896 38.2427 29.4427 36.7467 28.944 35.16H14.256C13.3493 38.3333 12.5107 41.076 11.74 43.388H0.18V43.252L14.12 0.343999H29.08L43.02 43.184ZM21.464 8.096C21.0107 10.408 20.3533 13.2187 19.492 16.528C18.6307 19.8373 17.724 23.2147 16.772 26.66H26.496C25.4987 23.2147 24.5693 19.8373 23.708 16.528C22.8467 13.2187 22.1893 10.408 21.736 8.096H21.464ZM58.6866 43.388H47.8066V0.343999H58.6866V43.388Z" fill="black"/>
<path d="M43.02 43.184V43.388H31.46C31.1427 42.3 30.7573 41.0533 30.304 39.648C29.896 38.2427 29.4427 36.7467 28.944 35.16H14.256C13.3493 38.3333 12.5107 41.076 11.74 43.388H0.18V43.252L14.12 0.343999H29.08L43.02 43.184ZM21.464 8.096C21.0107 10.408 20.3533 13.2187 19.492 16.528C18.6307 19.8373 17.724 23.2147 16.772 26.66H26.496C25.4987 23.2147 24.5693 19.8373 23.708 16.528C22.8467 13.2187 22.1893 10.408 21.736 8.096H21.464ZM58.6866 43.388H47.8066V0.343999H58.6866V43.388Z" fill="url(#paint0_linear_229_5103)"/>
<defs>
<linearGradient id="paint0_linear_229_5103" x1="36.6638" y1="-0.35" x2="36.6638" y2="38.41" gradientUnits="userSpaceOnUse">
<stop stop-color="white"/>
<stop offset="1" stop-color="#3B3B3B"/>
</linearGradient>
</defs>
</svg>
