<svg width="80" height="80" viewBox="0 0 80 80" fill="none" xmlns="http://www.w3.org/2000/svg">
<path d="M55.4532 46.1357H35.9868C34.7876 46.1357 33.8203 47.1031 33.8203 48.2942C33.8203 49.4854 34.7956 50.4527 35.9868 50.4527H55.4532C56.6443 50.4527 57.6117 49.4854 57.6197 48.2942C57.6197 47.1031 56.6443 46.1357 55.4532 46.1357Z" fill="white"/>
<path d="M55.4514 5.0127H29.5015C24.9287 5.0127 20.8516 9.20976 20.8516 13.6626L18.3493 13.7266C13.7765 13.7266 10.0352 17.8677 10.0352 22.3206V65.5703C10.0352 70.0232 14.1123 74.2203 18.6851 74.2203H51.1264C55.6992 74.2203 59.7763 70.0232 59.7763 65.5703H61.9428C66.5156 65.5703 70.5928 61.3732 70.5928 56.9204V22.3606L55.4514 5.0127ZM55.4514 9.40162L66.2678 22.3126H59.7763C57.4739 22.3126 55.4514 18.1315 55.4514 15.8851V9.40162ZM51.1344 69.8873H18.6931C16.4227 69.8873 14.3681 67.7688 14.3681 65.5623V22.3126C14.3681 20.1141 16.2148 18.0596 18.4852 18.0596L20.8516 17.9876V56.9124C20.8516 61.3652 24.9287 65.5623 29.5015 65.5623H55.4594C55.4594 67.7688 53.4048 69.8873 51.1344 69.8873ZM66.2678 56.9124C66.2678 59.1188 64.2132 61.2373 61.9428 61.2373H29.5015C27.2311 61.2373 25.1766 59.1188 25.1766 56.9124V13.6626C25.1766 11.4562 27.2311 9.33767 29.5015 9.33767H51.1184C51.0864 14.3182 51.1184 18.0436 51.1184 18.0436C51.1184 22.5364 55.1636 26.6376 59.7683 26.6376H66.2678V56.9124Z" fill="white"/>
<path d="M55.4532 35.335H35.9868C34.7876 35.335 33.8203 36.3023 33.8203 37.4935C33.8203 38.6846 34.7956 39.6519 35.9868 39.6519H55.4532C56.6443 39.6519 57.6117 38.6846 57.6197 37.4935C57.6197 36.3023 56.6443 35.335 55.4532 35.335Z" fill="white"/>
</svg>
