<svg width="80" height="80" viewBox="0 0 80 80" fill="none" xmlns="http://www.w3.org/2000/svg">
<path d="M12.3114 58.6954C11.4514 57.2354 10.888 56.2562 10.608 55.7336C8.01391 50.8957 6.66017 45.4899 6.668 40.0004C6.668 21.5912 21.5922 6.66699 40.0014 6.66699C58.4105 6.66699 73.3347 21.5912 73.3347 40.0004C73.3347 58.4095 58.4105 73.3337 40.0014 73.3337C33.9715 73.3427 28.0532 71.7086 22.8822 68.607C22.3612 68.2984 21.839 67.9921 21.3154 67.6879L13.1588 69.9128C11.2921 70.4212 9.58042 68.7087 10.0896 66.8428L12.3114 58.6954ZM17.413 58.9912L16.0647 63.937L21.0105 62.5887C21.3305 62.5013 21.6647 62.4785 21.9936 62.5215C22.3226 62.5646 22.6396 62.6727 22.9264 62.8395C23.7709 63.3293 24.6134 63.8227 25.4539 64.3195C29.848 66.9549 34.8775 68.3428 40.0014 68.3337C55.6497 68.3337 68.3347 55.6487 68.3347 40.0004C68.3347 24.352 55.6497 11.667 40.0014 11.667C24.353 11.667 11.668 24.352 11.668 40.0004C11.668 44.7337 12.828 49.2937 15.0139 53.3703C15.3039 53.9104 16.0239 55.1537 17.1521 57.0603C17.3227 57.3483 17.4336 57.6676 17.4785 57.9993C17.5233 58.331 17.501 58.6683 17.413 58.9912ZM28.8189 53.462C28.5617 53.2536 28.3484 52.9963 28.1915 52.7049C28.0346 52.4134 27.9371 52.0937 27.9047 51.7643C27.8723 51.4349 27.9056 51.1024 28.0027 50.786C28.0998 50.4696 28.2588 50.1756 28.4704 49.9211C28.6821 49.6666 28.9421 49.4566 29.2355 49.3034C29.5289 49.1502 29.8498 49.0568 30.1796 49.0286C30.5094 49.0004 30.8415 49.038 31.1566 49.1391C31.4718 49.2403 31.7637 49.403 32.0155 49.6179C34.2569 51.4857 37.0837 52.506 40.0014 52.5004C42.9614 52.5004 45.7572 51.4712 47.9847 49.6187C48.4946 49.1948 49.152 48.9908 49.8123 49.0516C50.4726 49.1124 51.0816 49.433 51.5055 49.9429C51.9294 50.4528 52.1334 51.1102 52.0726 51.7704C52.0118 52.4307 51.6912 53.0398 51.1814 53.4637C48.0425 56.0772 44.0858 57.5058 40.0014 57.5004C35.9159 57.506 31.9581 56.0766 28.8189 53.462Z" fill="white"/>
</svg>
