<svg width="64" height="64" viewBox="0 0 64 64" fill="none" xmlns="http://www.w3.org/2000/svg">
<path d="M61.0808 23.68C60.8461 23.6088 60.5955 23.6088 60.3608 23.68L54.8008 26.72V12C54.9738 10.5915 54.8664 9.16263 54.4849 7.79575C54.1034 6.42887 53.4553 5.15096 52.5779 4.0356C51.7005 2.92024 50.6111 1.98946 49.3725 1.29686C48.1339 0.604254 46.7705 0.163509 45.3608 0L17.9608 0C16.5511 0.163509 15.1877 0.604254 13.9491 1.29686C12.7105 1.98946 11.6211 2.92024 10.7437 4.0356C9.86625 5.15096 9.21813 6.42887 8.83663 7.79575C8.45513 9.16263 8.34779 10.5915 8.52078 12V26.92L3.04078 24C2.80606 23.9288 2.5555 23.9288 2.32078 24C1.92449 23.9999 1.54381 24.1545 1.25988 24.431C0.975945 24.7074 0.81121 25.0838 0.800781 25.48V52C0.800781 55.119 2.03978 58.1102 4.24521 60.3156C6.45063 62.521 9.44184 63.76 12.5608 63.76H50.6008C53.7834 63.76 56.8356 62.4957 59.0861 60.2453C61.3365 57.9949 62.6008 54.9426 62.6008 51.76V25.16C62.5904 24.7638 62.4256 24.3874 62.1417 24.111C61.8578 23.8345 61.4771 23.6799 61.0808 23.68ZM12.5208 12C12.5208 8 15.0008 4.32 17.9608 4.32H45.3608C48.3208 4.32 50.8008 7.84 50.8008 12V29.12L32.3608 39.28C32.1244 39.3393 31.8771 39.3393 31.6408 39.28C31.4041 39.3361 31.1575 39.3361 30.9208 39.28L12.5208 29.12V12ZM58.5608 52C58.5608 54.1217 57.7179 56.1566 56.2176 57.6569C54.7174 59.1572 52.6825 60 50.5608 60H12.5208C11.4775 60.007 10.4436 59.8033 9.48094 59.4012C8.51828 58.9991 7.64668 58.4068 6.91838 57.6599C6.19007 56.9129 5.62003 56.0266 5.24242 55.054C4.8648 54.0815 4.68738 53.0427 4.72078 52V29.4L29.0008 42.76C29.8097 43.2047 30.7177 43.4378 31.6408 43.4378C32.5638 43.4378 33.4719 43.2047 34.2808 42.76L58.5608 29.4V52Z" fill="white"/>
<path d="M23.6016 17.5596H39.6016C40.132 17.5596 40.6407 17.3489 41.0158 16.9738C41.3909 16.5987 41.6016 16.09 41.6016 15.5596C41.5913 15.0323 41.3773 14.5296 41.0044 14.1567C40.6316 13.7838 40.1288 13.5698 39.6016 13.5596H23.6016C23.0711 13.5596 22.5624 13.7703 22.1873 14.1454C21.8123 14.5204 21.6016 15.0291 21.6016 15.5596C21.6016 16.09 21.8123 16.5987 22.1873 16.9738C22.5624 17.3489 23.0711 17.5596 23.6016 17.5596ZM41.7216 25.1996C41.7113 24.6723 41.4973 24.1696 41.1244 23.7967C40.7516 23.4238 40.2488 23.2098 39.7216 23.1996H23.7216C23.1911 23.1996 22.6824 23.4103 22.3073 23.7854C21.9323 24.1604 21.7216 24.6691 21.7216 25.1996C21.7216 25.73 21.9323 26.2387 22.3073 26.6138C22.6824 26.9889 23.1911 27.1996 23.7216 27.1996H39.7216C40.252 27.1996 40.7607 26.9889 41.1358 26.6138C41.5108 26.2387 41.7216 25.73 41.7216 25.1996Z" fill="white"/>
</svg>
