<svg width="80" height="80" viewBox="0 0 80 80" fill="none" xmlns="http://www.w3.org/2000/svg">
<path d="M43.9685 67.1595C45.7152 66.9095 47.4085 68.1862 47.4085 69.9495C47.4085 71.4429 46.3718 72.7562 44.8952 72.9729C38.1343 73.9771 31.2281 72.8788 25.1123 69.8265C18.9966 66.7743 13.967 61.9158 10.705 55.9093C7.44302 49.9028 6.10637 43.0387 6.87617 36.2472C7.64597 29.4556 10.485 23.0648 15.0086 17.9408C19.5321 12.8167 25.5216 9.20717 32.1653 7.60117C38.809 5.99518 45.7859 6.47038 52.1505 8.96239C58.5151 11.4544 63.9598 15.8428 67.7468 21.5328C71.5338 27.2229 73.48 33.9396 73.3218 40.7729C73.2818 42.4462 71.8618 43.7029 70.1952 43.7029C68.6118 43.7029 67.3952 42.2962 67.4385 40.7162C67.4452 40.4762 67.4452 40.2395 67.4452 39.9962C67.4439 34.3973 65.7306 28.9327 62.535 24.3353C59.3394 19.7379 54.8144 16.2277 49.567 14.2754C44.3195 12.323 38.6005 12.022 33.1771 13.4127C27.7537 14.8033 22.8852 17.8192 19.2246 22.0557C15.5641 26.2922 13.2865 31.5467 12.6975 37.1145C12.1085 42.6823 13.2361 48.2971 15.9291 53.2058C18.6222 58.1145 22.7519 62.0823 27.7642 64.577C32.7766 67.0717 38.432 67.974 43.9718 67.1629H43.9685V67.1595Z" fill="white"/>
<path d="M44.2868 52.807C43.6135 52.807 42.9368 52.6403 42.4335 52.1336L34.3435 45.017C34.016 44.7523 33.7543 44.4152 33.5791 44.0324C33.4038 43.6495 33.3198 43.2312 33.3335 42.8103V26.3836C33.3333 25.9853 33.4115 25.5908 33.5637 25.2227C33.716 24.8546 33.9392 24.5201 34.2207 24.2383C34.5023 23.9564 34.8365 23.7328 35.2045 23.5802C35.5724 23.4275 35.9668 23.3489 36.3651 23.3486C36.7635 23.3484 37.158 23.4267 37.5261 23.5789C37.8942 23.7311 38.2287 23.9544 38.5105 24.2359C38.7923 24.5174 39.016 24.8517 39.1686 25.2196C39.3212 25.5876 39.3999 25.982 39.4001 26.3803V41.4636L46.4768 47.7303C47.6568 48.747 47.8235 50.6103 46.8135 51.967C45.9701 52.4736 45.1301 52.8136 44.2868 52.8136V52.807ZM58.7568 51.3436C59.1395 51.1513 59.5618 51.0512 59.9901 51.0512C60.4184 51.0512 60.8408 51.1513 61.2235 51.3436L67.1968 55.0436C67.8238 55.389 68.2926 55.964 68.5045 56.6478C68.7165 57.3315 68.6552 58.0708 68.3335 58.7103C68.0155 59.348 67.4635 59.8382 66.7927 60.0786C66.1218 60.319 65.3841 60.2909 64.7335 60.0003L62.7468 58.3103V70.4603C62.7664 71.0203 62.6165 71.5731 62.3168 72.0465C62.017 72.5199 61.5814 72.8919 61.0668 73.1136C60.7255 73.2599 60.3581 73.3354 59.9868 73.3356C59.6155 73.3358 59.248 73.2607 58.9065 73.1149C58.565 72.9691 58.2567 72.7556 58.0001 72.4872C57.7434 72.2189 57.5439 71.9013 57.4135 71.5536C57.281 71.2049 57.2198 70.8331 57.2335 70.4603V58.3103L55.3101 60.0003C54.6582 60.3103 53.9105 60.3511 53.2287 60.1141C52.5469 59.8771 51.9858 59.3812 51.6668 58.7336C51.3462 58.086 51.2898 57.3392 51.5093 56.6508C51.7288 55.9624 52.2072 55.3861 52.8435 55.0436L58.7568 51.3436Z" fill="white"/>
</svg>
