<svg width="16" height="16" viewBox="0 0 16 16" fill="none" xmlns="http://www.w3.org/2000/svg">
<path fill-rule="evenodd" clip-rule="evenodd" d="M13.6568 13.6568C12.2091 15.1046 10.2091 16 8 16C5.79088 16 3.79088 15.1046 2.34314 13.6568C0.895432 12.2091 0 10.2091 0 8C0 5.79088 0.895432 3.79088 2.34314 2.34314C3.79088 0.895432 5.79088 0 8 0C10.2091 0 12.2091 0.895432 13.6568 2.34314C15.1046 3.79088 16 5.79088 16 8C16 10.2091 15.1046 12.2091 13.6568 13.6568ZM11.8638 6.53033C12.1567 6.23744 12.1567 5.76256 11.8638 5.46967C11.5709 5.17678 11.0961 5.17678 10.8032 5.46967L7.3335 8.93934L5.86383 7.46967C5.57093 7.17678 5.09606 7.17678 4.80317 7.46967C4.51027 7.76256 4.51027 8.23744 4.80317 8.53033L6.80317 10.5303C7.09606 10.8232 7.57093 10.8232 7.86383 10.5303L11.8638 6.53033Z" fill="#FE5909"/>
</svg>
