<svg width="70" height="66" viewBox="0 0 70 66" fill="none" xmlns="http://www.w3.org/2000/svg">
<path d="M60.7538 22.3021C58.6254 17.2218 55.0434 12.8837 50.4577 9.83245C45.8719 6.78121 40.4869 5.15294 34.9788 5.15213C23.5013 5.15213 13.4563 12.1346 9.20877 22.3021C10.7546 21.7332 12.3891 21.4429 14.0363 21.4446C14.3418 21.4443 14.6444 21.5042 14.9268 21.6209C15.2091 21.7376 15.4657 21.9088 15.6819 22.1247C15.8981 22.3407 16.0696 22.5971 16.1866 22.8793C16.3036 23.1616 16.3638 23.4641 16.3638 23.7696V47.0421C16.3638 47.6588 16.1188 48.2501 15.6828 48.6861C15.2468 49.1222 14.6554 49.3671 14.0388 49.3671C11.4274 49.3675 8.86832 48.6356 6.65211 47.2545C4.43589 45.8734 2.6514 43.8984 1.50131 41.554C0.351224 39.2096 -0.118356 36.5896 0.145905 33.9917C0.410165 31.3937 1.39768 28.922 2.99627 26.8571L3.01627 26.7471C4.48683 19.3465 8.47976 12.6854 14.3138 7.90034C20.1478 3.11533 27.4615 0.502899 35.0068 0.508799C42.5522 0.514699 49.8617 3.13856 55.6882 7.9327C61.5148 12.7268 65.4973 19.3942 66.9563 26.7971L66.9663 26.8596C68.8647 29.3041 69.8932 32.3121 69.8888 35.4071C69.8909 37.4382 69.449 39.4451 68.5939 41.2874C67.7388 43.1296 66.4913 44.7627 64.9388 46.0721C64.6063 46.9321 63.9738 48.0721 62.9513 49.7971C58.5677 57.1259 51.4848 62.4433 43.2238 64.6071L40.7563 65.2821C40.6117 65.3229 40.4635 65.3497 40.3138 65.3621C39.7213 65.5596 39.0988 65.6621 38.4713 65.6596H31.4913C29.9484 65.6596 28.4687 65.0467 27.3777 63.9557C26.2867 62.8647 25.6738 61.385 25.6738 59.8421C25.6738 58.2992 26.2867 56.8195 27.3777 55.7285C28.4687 54.6375 29.9484 54.0246 31.4913 54.0246H38.4713C41.5213 54.0246 44.0563 56.3796 44.2763 59.4246C49.7079 57.5004 54.4136 53.9471 57.7513 49.2496C57.1461 49.3278 56.5365 49.367 55.9263 49.3671C55.6205 49.3675 55.3177 49.3075 55.0352 49.1906C54.7527 49.0738 54.4959 48.9023 54.2797 48.6862C54.0636 48.47 53.8921 48.2132 53.7753 47.9307C53.6584 47.6482 53.5984 47.3454 53.5988 47.0396V23.7696C53.5984 23.4641 53.6583 23.1615 53.775 22.8791C53.8917 22.5968 54.0629 22.3402 54.2789 22.124C54.4948 21.9078 54.7512 21.7363 55.0335 21.6194C55.3157 21.5024 55.6182 21.4421 55.9238 21.4421C57.6238 21.4421 59.2488 21.7421 60.7538 22.2996V22.3021ZM61.5488 42.8221C62.941 41.7644 64.0074 40.3361 64.6258 38.7006C65.2442 37.0652 65.3897 35.2887 65.0457 33.5744C64.7016 31.8601 63.8819 30.2773 62.6803 29.0071C61.4787 27.737 59.9438 26.8307 58.2513 26.3921V44.4221C59.4463 44.1146 60.5688 43.5721 61.5513 42.8221H61.5488ZM31.4913 58.6771C31.1826 58.6771 30.8866 58.7997 30.6684 59.018C30.4501 59.2362 30.3275 59.5322 30.3275 59.8409C30.3275 60.1495 30.4501 60.4455 30.6684 60.6638C30.8866 60.882 31.1826 61.0046 31.4913 61.0046H38.4713C38.7796 61.0046 39.0753 60.8822 39.2933 60.6641C39.5113 60.4461 39.6338 60.1504 39.6338 59.8421C39.6338 59.5338 39.5113 59.2381 39.2933 59.0201C39.0753 58.8021 38.7796 58.6796 38.4713 58.6796H31.4913V58.6771ZM4.72627 35.4071C4.72642 37.4708 5.41202 39.4759 6.67541 41.1077C7.9388 42.7394 9.7084 43.9052 11.7063 44.4221V26.3921C9.7084 26.909 7.9388 28.0749 6.67541 29.7066C5.41202 31.3383 4.72642 33.3435 4.72627 35.4071Z" fill="white"/>
</svg>
