<svg width="64" height="64" viewBox="0 0 64 64" fill="none" xmlns="http://www.w3.org/2000/svg">
<path d="M38.4649 52.864H10.4329C5.18494 52.864 0.960938 48.64 0.960938 43.392V14.848C0.960938 9.59998 5.18494 5.37598 10.4329 5.37598H38.4649C43.7129 5.37598 48.0009 9.59998 48.0009 14.848V43.392C48.0009 48.64 43.7129 52.864 38.4649 52.864ZM10.4329 9.21598C7.29694 9.21598 4.80094 11.776 4.80094 14.848V43.392C4.80094 46.528 7.36094 49.024 10.4329 49.024H38.4649C41.6009 49.024 44.0969 46.464 44.0969 43.392V14.848C44.0969 11.712 41.5369 9.21598 38.4649 9.21598H10.4329Z" fill="white"/>
<path d="M58.4315 49.4085C58.3035 49.4085 58.1115 49.4085 57.9835 49.3445L54.5275 48.5125C53.5035 48.2565 52.8635 47.2325 53.1195 46.2085C53.3755 45.1845 54.3995 44.5445 55.4235 44.8005L58.6235 45.5685C59.0075 45.5045 59.2635 45.0565 59.2635 44.5445V13.6965C59.2635 13.1845 59.0075 12.8005 58.6235 12.6725L49.2155 14.8485C49.0875 14.9125 48.8955 14.9125 48.7675 14.9125C48.3195 14.9125 47.9995 15.3605 47.9995 15.9365V42.2405C47.9995 42.8165 48.3835 43.2645 48.7675 43.2645C49.8555 43.2645 50.6875 44.0965 50.6875 45.1845C50.6875 46.2725 49.8555 47.1045 48.7675 47.1045C46.2075 47.1045 44.1595 44.9285 44.1595 42.2405V16.0005C44.1595 13.3765 46.0795 11.2645 48.5115 11.1365L57.9835 8.96048C58.1115 8.89648 58.3035 8.89648 58.4315 8.89648C60.9915 8.89648 63.0395 11.0725 63.0395 13.7605V44.5445C63.0395 47.2325 60.9915 49.4085 58.4315 49.4085ZM34.8795 23.4245C32.0635 23.4245 29.7595 21.1205 29.7595 18.3045C29.7595 15.4885 32.0635 13.1845 34.8795 13.1845C37.6955 13.1845 39.9995 15.4885 39.9995 18.3045C39.9995 21.1205 37.6955 23.4245 34.8795 23.4245ZM34.8795 17.0245C34.1755 17.0245 33.5995 17.6005 33.5995 18.3045C33.5995 19.0085 34.1755 19.5845 34.8795 19.5845C35.5835 19.5845 36.1595 19.0085 36.1595 18.3045C36.1595 17.6005 35.5835 17.0245 34.8795 17.0245ZM43.8395 58.6245H5.43953C4.35153 58.6245 3.51953 57.7925 3.51953 56.7045C3.51953 55.6165 4.35153 54.7845 5.43953 54.7845H43.8395C44.9275 54.7845 45.7595 55.6165 45.7595 56.7045C45.7595 57.7925 44.8635 58.6245 43.8395 58.6245Z" fill="white"/>
</svg>
