<svg width="160" height="160" fill="none" xmlns="http://www.w3.org/2000/svg"><path fill-rule="evenodd" clip-rule="evenodd" d="M83.298 3.503l.17-2.56 2.408.16c.279.007.552.078.799.208a1.114 1.114 0 01.492 1.127 1.183 1.183 0 01-.472 1.003 1.877 1.877 0 01-1.117.213l-2.28-.151zM82.01 7.495l1.014.068.214-3.214 2.243.15c.303.002.602.069.878.196a1.06 1.06 0 01.464 1.019L86.8 6.968c-.008.198-.004.397.012.595a.93.93 0 00.065.255l1.244.08.011-.168a.627.627 0 01-.296-.483 3.092 3.092 0 01-.03-.644l.032-1.007a1.691 1.691 0 00-.185-.96 1.538 1.538 0 00-.628-.513 1.847 1.847 0 001.173-1.72A1.777 1.777 0 0087.28.565a3.359 3.359 0 00-1.368-.342l-3.404-.226-.499 7.498zm7.521.604l5.445.915.149-.881-4.469-.752.422-2.51 4.06.683.151-.857-4.06-.683.377-2.248 4.393.74.152-.908-5.37-.903-1.25 7.404zm9.013-1.365l2.033-2.887.236 3.499-2.269-.612zM95.672 9.15l1.006.27 1.368-1.959 2.866.773.15 2.37 1.075.29-.676-7.959-1.11-.3-4.679 6.515zm8.66 1.62l2.054-5.386 1.647.629a1.982 1.982 0 011.356 1.343c.14.75.048 1.524-.266 2.219a4.467 4.467 0 01-.35.708c-.207.363-.483.68-.812.937a1.827 1.827 0 01-1.159.378 2.683 2.683 0 01-.813-.195l-1.657-.633zm-1.269.446l2.793 1.066a2.734 2.734 0 003.118-.636 5.115 5.115 0 001.185-1.862c.359-.834.43-1.763.203-2.642a2.819 2.819 0 00-1.822-1.87L105.738 4.2l-2.675 7.015zm9.606 3.986l.844.483 2.191-3.85c.088-.154.22-.398.398-.73.177-.332.311-.578.402-.738l.114-.2-1.253 6.574.876.499 4.994-4.442a62.37 62.37 0 01-.573.985c-.18.305-.309.523-.385.656l-2.192 3.852.843.483 3.714-6.522-1.257-.717-5.002 4.456 1.265-6.585-1.265-.724-3.714 6.52zm14.719.13a3.272 3.272 0 00-3.139-.581 4.44 4.44 0 00-2.152 1.652 4.327 4.327 0 00-.94 2.772 3.8 3.8 0 003.032 3.197c.515.1 1.044.092 1.556-.023a4.465 4.465 0 002.342-1.747c.569-.71.888-1.587.909-2.496a3.43 3.43 0 00-1.615-2.773h.007zm-4.078 5.723a2.373 2.373 0 01-1.141-1.903 3.45 3.45 0 01.738-2.07 3.375 3.375 0 011.989-1.466 2.463 2.463 0 012.006.484 2.367 2.367 0 011.046 1.771 3.163 3.163 0 01-.705 2.129 4.105 4.105 0 01-1.796 1.43 2.115 2.115 0 01-2.137-.375zm6.973 1.235l1.732-1.892 1.78 1.63c.213.18.382.406.494.661a1.119 1.119 0 01-.322 1.19 1.175 1.175 0 01-.996.487 1.876 1.876 0 01-1.005-.532l-1.683-1.544zm-3.496 2.313l.75.687 2.173-2.375 1.663 1.516c.236.192.428.431.563.703a1.058 1.058 0 01-.274 1.086l-.8.966c-.13.15-.251.307-.362.472a.933.933 0 00-.109.241l.919.842.114-.124a.636.636 0 01.07-.563c.107-.186.234-.36.378-.52l.654-.766c.233-.237.392-.538.455-.865a1.54 1.54 0 00-.171-.794 1.845 1.845 0 001.991-.608 1.775 1.775 0 00.432-2.013 3.34 3.34 0 00-.856-1.123l-2.516-2.306-5.074 5.544zm5.492 5.173l3.68 4.118.666-.595-3.02-3.382 1.897-1.697 2.744 3.071.644-.579-2.744-3.07 1.698-1.52 2.968 3.323.686-.613-3.629-4.062-5.59 5.006zm15.152 14.01l2.287-1.16 1.101 2.153c.137.242.215.513.229.791a1.11 1.11 0 01-.718 1 1.175 1.175 0 01-1.104.105 1.878 1.878 0 01-.753-.852l-1.042-2.037zm-4.087.932l.461.907 2.869-1.456 1.022 2.002c.153.262.248.553.279.855a1.06 1.06 0 01-.639.92l-1.089.62a4.655 4.655 0 00-.505.314.931.931 0 00-.187.186l.563 1.113.151-.08a.624.624 0 01.261-.5 3.13 3.13 0 01.538-.353l.881-.487a1.69 1.69 0 00.731-.649c.112-.252.153-.53.121-.805.282.21.616.342.965.383.387.026.773-.06 1.11-.25a1.772 1.772 0 001.112-1.73 3.352 3.352 0 00-.403-1.352l-1.543-3.044-6.698 3.406zm3.312 6.763l1.99 5.157.834-.322-1.631-4.23 2.373-.916 1.482 3.844.811-.314-1.483-3.843 2.126-.82 1.604 4.158.858-.332-1.961-5.083-7.003 2.701zm5.773 7.073l3.518.279-2.889 1.986-.629-2.265zm-3.541-1.243l.279 1.004 2.383.18.795 2.86-1.961 1.337.298 1.074 6.5-4.636-.308-1.108-7.986-.711zm3.02 8.293l5.679-.976.298 1.74a1.981 1.981 0 01-.464 1.851 3.721 3.721 0 01-2.044.901c-.26.043-.524.063-.788.06a3.168 3.168 0 01-1.219-.222 1.828 1.828 0 01-.916-.805 2.669 2.669 0 01-.246-.8l-.3-1.75zm-1.03-.865l.506 2.948a2.741 2.741 0 002.137 2.36c.72.184 1.473.209 2.204.071a4.09 4.09 0 002.376-1.17 2.828 2.828 0 00.681-2.522l-.508-2.958-7.396 1.271zm1.465 10.284l.019.971 4.426-.08a33.8 33.8 0 00.83-.03c.376-.018.656-.028.84-.032h.229l-6.287 2.28.029 1.005 6.368 2.025c-.405.008-.785.012-1.139.011h-.761l-4.427.08.019.972 7.503-.14-.027-1.449-6.384-2.025 6.304-2.277-.027-1.456-7.515.145zm7.419 12.707a3.283 3.283 0 00-1.108-2.992 4.43 4.43 0 00-2.52-1.004 4.318 4.318 0 00-2.861.613 3.786 3.786 0 00-1.409 2.704 3.795 3.795 0 001.036 2.867c.749.665 1.7 1.06 2.699 1.118a4.142 4.142 0 002.61-.498 3.447 3.447 0 001.553-2.808zm-7.002-.572a2.379 2.379 0 011.046-1.956 3.45 3.45 0 012.155-.426c.853.02 1.667.363 2.278.96a2.473 2.473 0 01.614 1.969 2.353 2.353 0 01-.986 1.806 3.162 3.162 0 01-2.189.484 4.106 4.106 0 01-2.148-.81 2.12 2.12 0 01-.773-2.028l.003.001zm2.507 6.647l2.511.522-.49 2.365a1.815 1.815 0 01-.315.762 1.116 1.116 0 01-1.185.333 1.181 1.181 0 01-.928-.606 1.877 1.877 0 01-.057-1.136l.464-2.24zm-3.774-1.822l-.207.996 3.151.654-.457 2.203a2.16 2.16 0 01-.315.842 1.058 1.058 0 01-1.074.322l-1.238-.194a4.717 4.717 0 00-.59-.07.943.943 0 00-.262.028l-.253 1.222.169.037a.62.62 0 01.516-.227c.214-.003.429.017.639.06l.993.17c.323.079.663.061.976-.052.244-.127.449-.318.595-.553a1.845 1.845 0 001.541 1.401 1.774 1.774 0 001.946-.657c.267-.394.447-.841.528-1.31l.693-3.342-7.351-1.53zm-1.636 7.367l-1.663 5.269.852.269 1.368-4.323 2.427.767-1.24 3.927.828.264 1.239-3.928 2.173.686-1.342 4.25.878.277 1.639-5.195-7.159-2.263zm-4.338 20.19l2.162 1.38-1.299 2.036a1.819 1.819 0 01-.563.601 1.113 1.113 0 01-1.227-.111 1.176 1.176 0 01-.652-.897c.002-.388.125-.766.351-1.082l1.228-1.927zm-2.881-3.045l-.548.857 2.714 1.731-1.207 1.897c-.148.265-.35.495-.594.675a1.065 1.065 0 01-.57.12 1.064 1.064 0 01-.547-.201l-1.088-.622a4.973 4.973 0 00-.527-.275.93.93 0 00-.255-.066l-.67 1.051.142.091a.63.63 0 01.563-.029c.202.074.395.169.577.284l.868.511c.273.19.597.294.93.299.273-.032.533-.137.752-.305a1.847 1.847 0 00.943 1.857 1.778 1.778 0 002.053.08c.389-.273.716-.627.958-1.037l1.834-2.876-6.328-4.042zm-4.132 6.286l-3.42 4.338.702.554 2.806-3.559 1.998 1.576-2.55 3.235.682.538 2.55-3.235 1.789 1.412-2.758 3.499.724.57 3.372-4.279-5.895-4.649zm-3.132 8.566l1.558 3.168-3.174-1.468 1.616-1.7zm-.739-3.678l-.724.752 1.062 2.143-2.052 2.145-2.15-1.005-.77.805 7.304 3.221.795-.831-3.465-7.23zm-5.578 6.831l3.745 4.381-1.34 1.147a1.978 1.978 0 01-1.828.549 3.736 3.736 0 01-1.82-1.295 4.52 4.52 0 01-.453-.644 3.174 3.174 0 01-.435-1.162 1.826 1.826 0 01.224-1.199c.153-.236.343-.446.563-.621l1.344-1.156zm.216-1.328l-2.271 1.944a2.735 2.735 0 00-.934 3.045 5.12 5.12 0 001.067 1.932 4.09 4.09 0 002.221 1.442 2.821 2.821 0 002.515-.706l2.279-1.95-4.877-5.707zm-8.094 6.538l-.825.512 2.334 3.765c.093.151.244.383.451.697.207.314.359.55.456.707l.121.195-5.169-4.238-.855.532 1.517 6.51a47.413 47.413 0 01-.592-.973 39.518 39.518 0 00-.393-.652l-2.334-3.766-.825.512 3.957 6.379 1.229-.762-1.525-6.522 5.179 4.255 1.238-.768-3.964-6.383zm-7.122 12.868a3.28 3.28 0 002.012-2.48 4.439 4.439 0 00-.424-2.681 4.32 4.32 0 00-1.986-2.149 3.773 3.773 0 00-3.042.167 3.774 3.774 0 00-1.215.973c-.334.405-.58.875-.722 1.38a4.469 4.469 0 00.415 2.894 4.154 4.154 0 001.759 1.991 3.435 3.435 0 003.207-.095h-.004zm-3.079-6.317a2.367 2.367 0 012.216-.096 3.454 3.454 0 011.465 1.637c.419.745.539 1.62.338 2.45a2.471 2.471 0 01-1.381 1.529 2.358 2.358 0 01-2.056.074 3.166 3.166 0 01-1.529-1.636 4.115 4.115 0 01-.402-2.263 2.12 2.12 0 011.349-1.699v.004zm-4.459 5.555l.831 2.427-2.285.782a1.8 1.8 0 01-.815.118 1.116 1.116 0 01-.89-.852 1.17 1.17 0 01.049-1.108 1.87 1.87 0 01.948-.627l2.162-.74zm-.355-4.179l-.966.33 1.047 3.046-2.128.725a2.13 2.13 0 01-.885.161 1.052 1.052 0 01-.822-.762l-.463-1.164a4.71 4.71 0 00-.241-.544.951.951 0 00-.161-.211l-1.179.402.054.161a.624.624 0 01.458.33c.112.184.204.378.275.581l.36.941c.096.319.284.602.54.814.234.145.503.225.778.231a1.846 1.846 0 00-.42 2.04 1.774 1.774 0 001.557 1.341 3.35 3.35 0 001.395-.213l3.228-1.106-2.427-7.103zm-7.15 2.335l-5.378 1.254.203.871 4.413-1.028.577 2.478-4.01.935.197.846 4.01-.935.517 2.221-4.338 1.01.208.897 5.304-1.236-1.703-7.313zm-19.556 6.566l-.08 2.564-2.414-.074a1.793 1.793 0 01-.805-.178 1.11 1.11 0 01-.533-1.11 1.181 1.181 0 01.436-1.02 1.878 1.878 0 011.108-.253l2.288.071zm1.14-4.036l-1.016-.031-.098 3.22-2.247-.068a2.133 2.133 0 01-.885-.165 1.056 1.056 0 01-.502-1.002l-.022-1.253a4.953 4.953 0 00-.033-.595.972.972 0 00-.074-.252l-1.246-.038-.005.168a.62.62 0 01.313.47c.04.212.057.428.051.644l.006 1.008c-.023.333.053.664.219.953.167.218.389.387.643.49a1.849 1.849 0 00-1.112 1.76 1.775 1.775 0 00.984 1.805c.435.195.906.295 1.382.293l3.41.104.233-7.511zm-7.543-.334l-5.473-.718-.116.885 4.493.59-.331 2.523-4.082-.535-.114.861 4.083.536-.289 2.261-4.416-.579-.12.912 5.4.708.965-7.444zm-8.955 1.691l-1.925 2.96-.365-3.488 2.29.528zm2.783-2.515l-1.016-.235-1.297 2.013-2.892-.668-.236-2.363-1.085-.25.966 7.928 1.12.259 4.44-6.684zm-8.694-1.298l-1.856 5.458-1.67-.569a1.983 1.983 0 01-1.403-1.293 3.732 3.732 0 01.184-2.226c.086-.249.194-.49.322-.721a3.2 3.2 0 01.776-.966 1.83 1.83 0 011.146-.42c.28.012.556.067.82.165l1.68.572zm1.251-.492l-2.83-.967a2.733 2.733 0 00-3.093.751 5.117 5.117 0 00-1.116 1.904 4.1 4.1 0 00-.106 2.647 2.823 2.823 0 001.89 1.803l2.84.966 2.415-7.104zm-9.749-3.634l-.86-.449-2.05 3.927a32.68 32.68 0 00-.372.743c-.165.339-.29.59-.375.753l-.106.204 1.012-6.615-.892-.466-4.829 4.62c.188-.36.367-.695.537-1.005.17-.311.29-.534.361-.671l2.051-3.928-.86-.449-3.475 6.655 1.282.67 4.836-4.634-1.024 6.626 1.288.674 3.476-6.655zm-14.727.395a3.272 3.272 0 003.155.469 4.44 4.44 0 002.093-1.729 4.33 4.33 0 00.84-2.804 3.796 3.796 0 00-3.148-3.088 3.794 3.794 0 00-1.555.081 4.463 4.463 0 00-2.278 1.83 4.136 4.136 0 00-.818 2.529 3.432 3.432 0 001.712 2.712h-.001zm3.87-5.865a2.371 2.371 0 011.206 1.86 3.455 3.455 0 01-.663 2.094 3.37 3.37 0 01-1.936 1.536 2.47 2.47 0 01-2.021-.408 2.371 2.371 0 01-1.11-1.734 3.17 3.17 0 01.628-2.153 4.105 4.105 0 011.744-1.495 2.112 2.112 0 012.149.298l.002.002zm-7.019-.988l-1.662 1.953-1.838-1.567a1.804 1.804 0 01-.517-.644 1.114 1.114 0 01.278-1.2 1.185 1.185 0 01.976-.523c.385.055.743.229 1.024.496l1.74 1.485zm3.411-2.437l-.773-.66-2.087 2.451-1.712-1.459a2.135 2.135 0 01-.587-.681 1.057 1.057 0 01.235-1.095l.766-.994c.125-.153.24-.315.345-.483a.937.937 0 00.1-.241l-.95-.805-.108.128a.624.624 0 01-.05.563c-.1.19-.221.369-.36.533l-.625.79a1.686 1.686 0 00-.424.88 1.53 1.53 0 00.199.788 1.844 1.844 0 00-1.968.679 1.777 1.777 0 00-.36 2.023c.218.424.524.796.896 1.093l2.596 2.213 4.867-5.723zm-5.673-4.973l-3.826-3.985-.644.62 3.139 3.269-1.835 1.763-2.852-2.971-.627.603 2.853 2.971-1.643 1.579-3.086-3.215-.664.638 3.773 3.929 5.412-5.201zM13.905 118.59l-2.244 1.241-1.168-2.113a1.81 1.81 0 01-.258-.784 1.112 1.112 0 01.683-1.025 1.179 1.179 0 011.098-.145c.34.187.614.475.783.825l1.106 2.001zm4.05-1.079l-.488-.889-2.817 1.559-1.088-1.969a2.158 2.158 0 01-.309-.845 1.054 1.054 0 01.606-.942l1.066-.66c.17-.1.336-.211.493-.332a.887.887 0 00.18-.192l-.603-1.091-.148.081a.629.629 0 01-.242.508 3.045 3.045 0 01-.524.372l-.863.519c-.297.15-.543.385-.708.675a1.537 1.537 0 00-.09.805 1.842 1.842 0 00-2.081-.058 1.774 1.774 0 00-1.046 1.767c.054.473.208.93.453 1.338l1.65 2.987 6.56-3.633zm-3.54-6.627l-2.173-5.078-.822.352 1.782 4.168-2.334 1.001-1.622-3.784-.798.342 1.621 3.784-2.092.898-1.754-4.097-.845.363 2.144 5.008 6.892-2.957zm-6.024-6.856l-3.526-.15 2.817-2.094.709 2.244zm3.58 1.113l-.315-.993-2.388-.094-.9-2.829 1.912-1.408-.337-1.062-6.327 4.871.348 1.096 8.008.419zm-3.318-8.172l-5.64 1.183-.362-1.728a1.984 1.984 0 01.397-1.867 3.722 3.722 0 012.012-.975c.26-.052.522-.081.786-.088.416-.022.833.038 1.226.177.394.141.728.414.945.772.132.247.225.514.275.79l.361 1.736zm1.06.828L9.1 94.868a2.738 2.738 0 00-2.22-2.281 5.11 5.11 0 00-2.207.01 4.083 4.083 0 00-2.334 1.256 2.811 2.811 0 00-.589 2.545l.615 2.937 7.349-1.54zM7.872 87.555l-.053-.966-4.423.241c-.177.01-.453.03-.828.06a39.52 39.52 0 01-.838.062l-.23.012 6.204-2.504-.054-1.012-6.439-1.797c.405-.021.785-.038 1.14-.051l.76-.03 4.426-.242-.052-.97-7.494.402.08 1.45 6.446 1.802-6.218 2.496.08 1.455 7.493-.408zM.003 75.134a3.28 3.28 0 001.215 2.95 4.43 4.43 0 002.555.912 4.32 4.32 0 002.837-.714 3.794 3.794 0 00.173-5.581 4.463 4.463 0 00-2.737-1.02 4.14 4.14 0 00-2.589.591A3.437 3.437 0 00.01 75.134H.003zm7.018.322a2.373 2.373 0 01-.978 1.992 3.448 3.448 0 01-2.138.503 3.37 3.37 0 01-2.31-.876 2.466 2.466 0 01-.686-1.946 2.363 2.363 0 01.921-1.842 3.158 3.158 0 012.173-.563c.78.033 1.533.287 2.173.733a2.117 2.117 0 01.845 1.999zm-2.742-6.574l-2.529-.43.403-2.382a1.8 1.8 0 01.286-.773 1.115 1.115 0 011.173-.375 1.182 1.182 0 01.95.572c.148.36.182.755.097 1.134l-.38 2.254zm3.838 1.685l.17-1.002-3.172-.54.377-2.218a2.14 2.14 0 01.285-.854 1.059 1.059 0 011.061-.358l1.244.15c.197.028.394.044.593.049a.951.951 0 00.26-.039l.21-1.23-.167-.027a.629.629 0 01-.508.241 3.077 3.077 0 01-.644-.036l-.998-.134a1.69 1.69 0 00-.973.086c-.24.137-.438.335-.575.574a1.846 1.846 0 00-1.587-1.345 1.773 1.773 0 00-1.92.725 3.344 3.344 0 00-.484 1.328l-.572 3.365 7.4 1.265zm1.368-7.402l1.47-5.326-.862-.242-1.207 4.37-2.453-.677 1.096-3.971-.837-.231-1.096 3.97-2.196-.606 1.186-4.296-.886-.241-1.448 5.25 7.233 2zm3.6-20.334l-2.21-1.301 1.225-2.082a1.8 1.8 0 01.542-.621 1.116 1.116 0 011.23.066 1.183 1.183 0 01.684.873 1.88 1.88 0 01-.311 1.094l-1.16 1.97zm2.99 2.939l.516-.877-2.774-1.632 1.14-1.939c.138-.27.332-.508.57-.697a1.058 1.058 0 011.118.042l1.11.582c.174.097.353.183.537.257.083.03.17.05.257.057l.632-1.075-.146-.086a.625.625 0 01-.563.049 3.075 3.075 0 01-.587-.263L17 39.71a1.677 1.677 0 00-.94-.266 1.535 1.535 0 00-.74.332 1.848 1.848 0 00-1.01-1.821 1.776 1.776 0 00-2.054 0c-.38.287-.693.652-.92 1.07l-1.73 2.943 6.47 3.803zm3.9-6.43l3.26-4.459-.724-.528-2.676 3.659-2.053-1.503 2.432-3.325-.701-.513-2.432 3.325-1.838-1.346 2.63-3.597-.742-.544-3.219 4.398 6.063 4.434zm2.834-8.686l-1.67-3.11 3.233 1.354-1.563 1.756zm.87 3.65l.692-.78-1.138-2.102 1.974-2.218 2.184.928.742-.833-7.416-2.959-.764.859 3.725 7.104zm5.33-7.027l-3.9-4.245 1.297-1.194a1.987 1.987 0 011.808-.614c.732.21 1.383.639 1.865 1.23.177.195.337.406.477.63.232.346.393.735.476 1.145.08.41.016.837-.18 1.207a2.684 2.684 0 01-.538.644l-1.306 1.197zm-.169 1.335l2.2-2.024a2.738 2.738 0 00.825-3.076 5.121 5.121 0 00-1.136-1.892 4.086 4.086 0 00-2.271-1.362 2.815 2.815 0 00-2.489.795l-2.208 2.03 5.08 5.529zm7.847-6.817l.805-.542-2.47-3.678a37.441 37.441 0 00-.476-.681c-.218-.308-.38-.537-.483-.69l-.128-.19 5.325 4.05.836-.564-1.75-6.452c.225.337.433.654.626.952.192.298.33.51.416.637l2.47 3.68.804-.543-4.185-6.232-1.2.806 1.759 6.464-5.33-4.066-1.207.813 4.188 6.236zM43.349 8.67a3.278 3.278 0 00-1.917 2.55c-.11.92.073 1.852.52 2.664a4.321 4.321 0 002.062 2.077 3.79 3.79 0 004.885-2.7 4.466 4.466 0 00-.52-2.876A4.144 4.144 0 0046.55 8.46a3.433 3.433 0 00-3.201.21zm3.305 6.2a2.37 2.37 0 01-2.212.175 3.449 3.449 0 01-1.523-1.583 3.383 3.383 0 01-.426-2.436 2.465 2.465 0 011.324-1.581 2.364 2.364 0 012.053-.148 3.167 3.167 0 011.591 1.58c.37.687.538 1.466.483 2.246a2.119 2.119 0 01-1.288 1.747h-.002zm4.231-5.702l-.919-2.395 2.254-.865c.255-.111.533-.162.811-.147a1.114 1.114 0 01.92.818 1.179 1.179 0 01-.008 1.108 1.87 1.87 0 01-.925.662l-2.133.819zm.508 4.163l.95-.364-1.156-3.004 2.1-.805c.276-.125.576-.19.879-.19a1.058 1.058 0 01.849.73l.505 1.148c.076.184.163.362.26.535a.95.95 0 00.166.205l1.164-.447-.06-.161a.627.627 0 01-.47-.312 3.096 3.096 0 01-.296-.571l-.394-.927a1.685 1.685 0 00-.57-.794 1.529 1.529 0 00-.786-.202 1.846 1.846 0 00.345-2.054 1.776 1.776 0 00-1.604-1.283 3.352 3.352 0 00-1.388.264L48.703 6.32l2.69 7.01zm7.082-2.606l5.33-1.45-.235-.862L59.197 9.6l-.666-2.456 3.974-1.079-.228-.839-3.974 1.079-.596-2.2 4.299-1.167-.242-.886-5.255 1.427 1.966 7.246z" fill="#fff"/></svg>