<svg width="32" height="32" viewBox="0 0 32 32" fill="none" xmlns="http://www.w3.org/2000/svg">
<path d="M16 0C7.16129 0 0 7.16129 0 16C0 24.8387 7.16129 32 16 32C24.8387 32 32 24.8387 32 16C32 7.16129 24.8387 0 16 0ZM23.8581 10.9613L21.2323 23.3355C21.0387 24.2129 20.5161 24.4258 19.7871 24.0129L15.7871 21.0645L13.8581 22.9226C13.6452 23.1355 13.4645 23.3161 13.0516 23.3161L13.3355 19.2452L20.7484 12.5484C21.071 12.2645 20.6774 12.1032 20.2516 12.3871L11.0903 18.1548L7.14193 16.9226C6.28387 16.6516 6.26452 16.0645 7.32258 15.6516L22.7484 9.70323C23.4645 9.44516 24.0903 9.87742 23.8581 10.9613Z" fill="#FF770F"/>
</svg>
