<svg width="32" height="32" viewBox="0 0 32 32" fill="none" xmlns="http://www.w3.org/2000/svg">
<g clip-path="url(#clip0_7455_14097)">
<path d="M0.0625 15.9848C0.0625 18.0839 0.475555 20.1625 1.27808 22.1019C2.08061 24.0412 3.25689 25.8034 4.73976 27.2877C6.22264 28.772 7.98307 29.9495 9.92054 30.7528C11.858 31.5561 13.9346 31.9696 16.0317 31.9696C18.1288 31.9696 20.2054 31.5561 22.1428 30.7528C24.0803 29.9495 25.8407 28.772 27.3236 27.2877C28.8065 25.8034 29.9828 24.0412 30.7853 22.1019C31.5878 20.1625 32.0009 18.0839 32.0009 15.9848C32.0009 13.8856 31.5878 11.807 30.7853 9.86767C29.9828 7.9283 28.8065 6.16616 27.3236 4.68183C25.8407 3.19751 24.0803 2.02008 22.1428 1.21677C20.2054 0.413458 18.1288 0 16.0317 0C13.9346 0 11.858 0.413458 9.92054 1.21677C7.98307 2.02008 6.22264 3.19751 4.73976 4.68183C3.25689 6.16616 2.08061 7.9283 1.27808 9.86767C0.475555 11.807 0.0625 13.8856 0.0625 15.9848Z" fill="#FF770F"/>
<path d="M16.0307 9.68311C12.1221 9.68311 9.38448 11.3577 9.38448 11.3577C10.8902 10.018 13.5061 9.24162 13.5061 9.24162L13.2627 8.99805C10.7989 9.04372 8.56321 10.7488 8.56321 10.7488C6.05377 15.9857 6.22107 20.5223 6.22107 20.5223C8.25904 23.1712 11.3008 22.9733 11.3008 22.9733L12.335 21.6641C10.5099 21.2683 9.35407 19.6546 9.35407 19.6546C9.35407 19.6546 12.0916 21.5271 16.0307 21.5271C19.9698 21.5271 22.7073 19.6546 22.7073 19.6546C22.7073 19.6546 21.5515 21.2835 19.7264 21.6641L20.7606 22.9733C20.7606 22.9733 23.7872 23.1712 25.8403 20.5223C25.8403 20.5223 26.0076 16.0009 23.483 10.7488C23.483 10.7488 21.2473 9.04372 18.7835 8.99805L18.5401 9.24162C18.5401 9.24162 21.1713 10.018 22.6617 11.3577C22.6921 11.3577 19.9394 9.68311 16.0307 9.68311ZM13.0194 15.2093C13.9623 15.2093 14.738 16.0466 14.7228 17.0666C14.7228 18.0713 13.9623 18.9238 13.0194 18.9238C12.0916 18.9238 11.3312 18.0713 11.3312 17.0666C11.3312 16.0466 12.0612 15.2093 13.0194 15.2093ZM19.1029 15.2093C20.0458 15.2093 20.8063 16.0466 20.8063 17.0666C20.8063 18.0713 20.0458 18.9238 19.1029 18.9238C18.1751 18.9238 17.4147 18.0713 17.4147 17.0666C17.4147 16.0466 18.1447 15.2093 19.1029 15.2093Z" fill="#021829"/>
</g>
<defs>
<clipPath id="clip0_7455_14097">
<rect width="32" height="32" fill="white"/>
</clipPath>
</defs>
</svg>
