<svg width="32" height="32" viewBox="0 0 32 32" fill="none" xmlns="http://www.w3.org/2000/svg">
<path fill-rule="evenodd" clip-rule="evenodd" d="M1.21556 22.1019C0.413036 20.1625 -1.87563e-05 18.0839 -1.87121e-05 15.9848C-1.87434e-05 13.8856 0.413036 11.807 1.21556 9.86767C2.01809 7.9283 3.19437 6.16616 4.67725 4.68183C6.16012 3.19751 7.92055 2.02008 9.85802 1.21677C11.7955 0.413458 13.8721 0 15.9692 0C18.0663 0 20.1428 0.413458 22.0803 1.21677C24.0178 2.02008 25.7782 3.19751 27.2611 4.68183C28.744 6.16616 29.9202 7.9283 30.7228 9.86767C31.5253 11.807 31.9383 13.8856 31.9383 15.9848C31.9383 18.0839 31.5253 20.1625 30.7228 22.1019C29.9202 24.0412 28.744 25.8034 27.2611 27.2877C25.7782 28.772 24.0178 29.9495 22.0803 30.7528C20.1428 31.5561 18.0663 31.9696 15.9692 31.9696C13.8721 31.9696 11.7955 31.5561 9.85802 30.7528C7.92055 29.9495 6.16012 28.772 4.67725 27.2877C3.19437 25.8034 2.01809 24.0412 1.21556 22.1019ZM19.5758 8.6741C18.6268 8.6308 18.3422 8.62165 15.9391 8.62165C13.536 8.62165 13.2513 8.6308 12.3023 8.6741C11.4248 8.71415 10.9483 8.86077 10.6311 8.98398C10.211 9.14725 9.9112 9.34231 9.59628 9.65723C9.28136 9.97215 9.0863 10.272 8.92307 10.6921C8.79982 11.0092 8.6532 11.4858 8.61315 12.3633C8.56985 13.3123 8.56071 13.5969 8.56071 16C8.56071 18.4031 8.56985 18.6878 8.61315 19.6368C8.6532 20.5143 8.79982 20.9908 8.92307 21.308C9.0863 21.728 9.28136 22.0279 9.59628 22.3428C9.9112 22.6577 10.211 22.8528 10.6311 23.016C10.9483 23.1393 11.4248 23.2859 12.3023 23.3259C13.2512 23.3692 13.5358 23.3784 15.9391 23.3784C18.3423 23.3784 18.627 23.3692 19.5758 23.3259C20.4533 23.2859 20.9299 23.1393 21.247 23.016C21.6671 22.8528 21.9669 22.6577 22.2819 22.3428C22.5968 22.0279 22.7918 21.728 22.9551 21.308C23.0783 20.9908 23.2249 20.5143 23.265 19.6368C23.3083 18.6878 23.3174 18.4031 23.3174 16C23.3174 13.5969 23.3083 13.3123 23.265 12.3632C23.2249 11.4858 23.0783 11.0092 22.9551 10.6921C22.7918 10.272 22.5968 9.97215 22.2819 9.65723C21.9669 9.34231 21.6671 9.14725 21.247 8.98398C20.9299 8.86077 20.4533 8.71415 19.5758 8.6741ZM12.2284 7.05416C13.1883 7.01036 13.4948 7 15.9391 7C18.3833 7 18.6898 7.01036 19.6497 7.05416C20.6077 7.09789 21.2619 7.25001 21.8344 7.47251C22.4263 7.70251 22.9282 8.01025 23.4285 8.51058C23.9288 9.01092 24.2366 9.51283 24.4666 10.1047C24.6891 10.6772 24.8412 11.3314 24.8849 12.2893C24.9287 13.2493 24.9391 13.5557 24.9391 16C24.9391 18.4443 24.9287 18.7508 24.8849 19.7107C24.8412 20.6687 24.6891 21.3229 24.4666 21.8954C24.2366 22.4872 23.9288 22.9891 23.4285 23.4895C22.9282 23.9898 22.4263 24.2975 21.8344 24.5275C21.2619 24.75 20.6077 24.9021 19.6497 24.9459C18.6898 24.9897 18.3833 25 15.9391 25C13.4948 25 13.1883 24.9897 12.2284 24.9459C11.2704 24.9021 10.6162 24.75 10.0437 24.5275C9.45188 24.2975 8.94997 23.9898 8.44963 23.4895C7.9493 22.9891 7.64156 22.4872 7.41156 21.8954C7.18906 21.3229 7.03694 20.6687 6.99321 19.7107C6.94941 18.7508 6.93909 18.4443 6.93909 16C6.93909 13.5557 6.94941 13.2493 6.99321 12.2893C7.03694 11.3314 7.18906 10.6772 7.41156 10.1047C7.64156 9.51283 7.9493 9.01092 8.44963 8.51058C8.94997 8.01025 9.45188 7.70251 10.0437 7.47251C10.6162 7.25001 11.2704 7.09789 12.2284 7.05416ZM11.3174 16C11.3174 13.4476 13.3866 11.3784 15.9391 11.3784C18.4915 11.3784 20.5607 13.4476 20.5607 16C20.5607 18.5525 18.4915 20.6217 15.9391 20.6217C13.3866 20.6217 11.3174 18.5525 11.3174 16ZM12.9391 16C12.9391 17.6569 14.2822 19 15.9391 19C17.5959 19 18.9391 17.6569 18.9391 16C18.9391 14.3432 17.5959 13 15.9391 13C14.2822 13 12.9391 14.3432 12.9391 16ZM20.7433 12.2758C21.3398 12.2758 21.8233 11.7923 21.8233 11.1958C21.8233 10.5993 21.3398 10.1158 20.7433 10.1158C20.1468 10.1158 19.6633 10.5993 19.6633 11.1958C19.6633 11.7923 20.1468 12.2758 20.7433 12.2758Z" fill="#FF770F"/>
</svg>
