<svg width="32" height="32" viewBox="0 0 32 32" fill="none" xmlns="http://www.w3.org/2000/svg">
<g clip-path="url(#clip0_7455_14104)">
<path fill-rule="evenodd" clip-rule="evenodd" d="M1.27808 22.1019C0.475555 20.1625 0.0625 18.0839 0.0625 15.9848C0.0625 13.8856 0.475555 11.807 1.27808 9.86767C2.08061 7.9283 3.25689 6.16616 4.73976 4.68183C6.22264 3.19751 7.98307 2.02008 9.92054 1.21677C11.858 0.413458 13.9346 0 16.0317 0C18.1288 0 20.2054 0.413458 22.1428 1.21677C24.0803 2.02008 25.8407 3.19751 27.3236 4.68183C28.8065 6.16616 29.9828 7.9283 30.7853 9.86767C31.5878 11.807 32.0009 13.8856 32.0009 15.9848C32.0009 18.0839 31.5878 20.1625 30.7853 22.1019C29.9828 24.0412 28.8065 25.8034 27.3236 27.2877C25.8407 28.772 24.0803 29.9495 22.1428 30.7528C20.644 31.3742 19.0618 31.7624 17.4514 31.9063C17.7266 31.8766 17.9998 31.8401 18.2709 31.7971V20.0747H22.0838L22.8087 15.2244H18.2709V12.0773C18.2709 10.7515 18.9037 9.45636 20.9379 9.45636H23.002V5.32792C23.002 5.32792 21.1288 5 19.3386 5C15.6016 5 13.1578 7.32136 13.1578 11.5277V15.2244H9.00195V20.0747H13.1578V31.7086C12.0506 31.5058 10.9654 31.186 9.92054 30.7528C7.98307 29.9495 6.22264 28.772 4.73976 27.2877C3.25689 25.8034 2.08061 24.0412 1.27808 22.1019Z" fill="#FF770F"/>
</g>
<defs>
<clipPath id="clip0_7455_14104">
<rect width="32" height="32" fill="white"/>
</clipPath>
</defs>
</svg>
