<svg width="32" height="32" viewBox="0 0 32 32" fill="none" xmlns="http://www.w3.org/2000/svg">
<g clip-path="url(#clip0_6841_6531)">
<path d="M0.0605469 15.9848C0.0605468 18.0839 0.473602 20.1625 1.27613 22.1019C2.07865 24.0412 3.25494 25.8034 4.73781 27.2877C6.22069 28.772 7.98112 29.9495 9.91859 30.7528C11.8561 31.5561 13.9326 31.9696 16.0297 31.9696C18.1268 31.9696 20.2034 31.5561 22.1409 30.7528C24.0783 29.9495 25.8388 28.772 27.3216 27.2877C28.8045 25.8034 29.9808 24.0412 30.7833 22.1019C31.5859 20.1625 31.9989 18.0839 31.9989 15.9848C31.9989 13.8856 31.5859 11.807 30.7833 9.86767C29.9808 7.9283 28.8045 6.16616 27.3216 4.68183C25.8388 3.19751 24.0783 2.02008 22.1409 1.21677C20.2034 0.413458 18.1268 0 16.0297 0C13.9326 0 11.8561 0.413458 9.91859 1.21677C7.98112 2.02008 6.22069 3.19751 4.73781 4.68183C3.25494 6.16616 2.07866 7.9283 1.27613 9.86767C0.473602 11.807 0.0605468 13.8856 0.0605469 15.9848Z" fill="white"/>
<path d="M16.0307 9.68311C12.1221 9.68311 9.38448 11.3577 9.38448 11.3577C10.8902 10.018 13.5061 9.24162 13.5061 9.24162L13.2627 8.99805C10.7989 9.04372 8.56321 10.7488 8.56321 10.7488C6.05377 15.9857 6.22107 20.5223 6.22107 20.5223C8.25904 23.1712 11.3008 22.9733 11.3008 22.9733L12.335 21.6641C10.5099 21.2683 9.35407 19.6546 9.35407 19.6546C9.35407 19.6546 12.0916 21.5271 16.0307 21.5271C19.9698 21.5271 22.7073 19.6546 22.7073 19.6546C22.7073 19.6546 21.5515 21.2835 19.7264 21.6641L20.7606 22.9733C20.7606 22.9733 23.7872 23.1712 25.8403 20.5223C25.8403 20.5223 26.0076 16.0009 23.483 10.7488C23.483 10.7488 21.2473 9.04372 18.7835 8.99805L18.5401 9.24162C18.5401 9.24162 21.1713 10.018 22.6617 11.3577C22.6921 11.3577 19.9394 9.68311 16.0307 9.68311ZM13.0194 15.2093C13.9623 15.2093 14.738 16.0466 14.7228 17.0666C14.7228 18.0713 13.9623 18.9238 13.0194 18.9238C12.0916 18.9238 11.3312 18.0713 11.3312 17.0666C11.3312 16.0466 12.0612 15.2093 13.0194 15.2093ZM19.1029 15.2093C20.0458 15.2093 20.8063 16.0466 20.8063 17.0666C20.8063 18.0713 20.0458 18.9238 19.1029 18.9238C18.1751 18.9238 17.4147 18.0713 17.4147 17.0666C17.4147 16.0466 18.1447 15.2093 19.1029 15.2093Z" fill="#021829"/>
</g>
<defs>
<clipPath id="clip0_6841_6531">
<rect width="32" height="32" fill="white"/>
</clipPath>
</defs>
</svg>
