<svg width="32" height="32" viewBox="0 0 32 32" fill="none" xmlns="http://www.w3.org/2000/svg">
<g clip-path="url(#clip0_6841_7984)">
<path fill-rule="evenodd" clip-rule="evenodd" d="M1.27613 22.1019C0.473602 20.1625 0.0605469 18.0839 0.0605469 15.9848C0.0605469 13.8856 0.473602 11.807 1.27613 9.86767C2.07866 7.9283 3.25494 6.16616 4.73781 4.68183C6.22069 3.19751 7.98112 2.02008 9.91859 1.21677C11.8561 0.413458 13.9326 0 16.0297 0C18.1268 0 20.2034 0.413458 22.1409 1.21677C24.0783 2.02008 25.8388 3.19751 27.3216 4.68183C28.8045 6.16616 29.9808 7.9283 30.7833 9.86767C31.5859 11.807 31.9989 13.8856 31.9989 15.9848C31.9989 18.0839 31.5859 20.1625 30.7833 22.1019C29.9808 24.0412 28.8045 25.8034 27.3216 27.2877C25.8388 28.772 24.0783 29.9495 22.1409 30.7528C20.642 31.3742 19.0599 31.7624 17.4494 31.9063C17.7247 31.8766 17.9979 31.8401 18.2689 31.7971V20.0747H22.0819L22.8067 15.2244H18.2689V12.0773C18.2689 10.7515 18.9017 9.45636 20.9359 9.45636H23V5.32792C23 5.32792 21.1269 5 19.3366 5C15.5996 5 13.1558 7.32136 13.1558 11.5277V15.2244H9V20.0747H13.1558V31.7086C12.0487 31.5058 10.9634 31.186 9.91859 30.7528C7.98112 29.9495 6.22069 28.772 4.73781 27.2877C3.25494 25.8034 2.07865 24.0412 1.27613 22.1019Z" fill="white"/>
</g>
<defs>
<clipPath id="clip0_6841_7984">
<rect width="32" height="32" fill="white"/>
</clipPath>
</defs>
</svg>
