<svg width="32" height="32" viewBox="0 0 32 32" fill="none" xmlns="http://www.w3.org/2000/svg">
<path d="M10.2001 27.8795C10.1601 27.8795 10.1067 27.9061 10.0667 27.9061C7.48008 26.6261 5.37341 24.5061 4.08008 21.9195C4.08008 21.8795 4.10674 21.8261 4.10674 21.7861C5.73341 22.2661 7.41341 22.6261 9.08008 22.9061C9.37341 24.5861 9.72008 26.2528 10.2001 27.8795Z" fill="white"/>
<path d="M27.92 21.9328C26.6 24.5861 24.4 26.7328 21.72 28.0261C22.2266 26.3328 22.6533 24.6261 22.9333 22.9061C24.6133 22.6261 26.2666 22.2661 27.8933 21.7861C27.88 21.8395 27.92 21.8928 27.92 21.9328Z" fill="white"/>
<path d="M28.0266 10.2803C26.3466 9.77363 24.6533 9.3603 22.9333 9.06697C22.6533 7.34697 22.24 5.6403 21.72 3.97363C24.48 5.29363 26.7066 7.5203 28.0266 10.2803Z" fill="white"/>
<path d="M10.2001 4.12008C9.72006 5.74674 9.37339 7.40008 9.09339 9.08008C7.37339 9.34675 5.66672 9.77341 3.97339 10.2801C5.26672 7.60008 7.41339 5.40008 10.0667 4.08008C10.1067 4.08008 10.1601 4.12008 10.2001 4.12008Z" fill="white"/>
<path d="M20.6533 8.78699C17.56 8.44033 14.44 8.44033 11.3467 8.78699C11.68 6.96033 12.1067 5.13366 12.7067 3.37366C12.7333 3.26699 12.72 3.18699 12.7333 3.08033C13.7867 2.82699 14.8667 2.66699 16 2.66699C17.12 2.66699 18.2133 2.82699 19.2533 3.08033C19.2667 3.18699 19.2667 3.26699 19.2933 3.37366C19.8933 5.14699 20.32 6.96033 20.6533 8.78699Z" fill="white"/>
<path d="M8.78675 20.6533C6.94675 20.32 5.13341 19.8933 3.37341 19.2933C3.26675 19.2667 3.18675 19.28 3.08008 19.2667C2.82675 18.2133 2.66675 17.1333 2.66675 16C2.66675 14.88 2.82675 13.7867 3.08008 12.7467C3.18675 12.7333 3.26675 12.7333 3.37341 12.7067C5.14675 12.12 6.94675 11.68 8.78675 11.3467C8.45341 14.44 8.45341 17.56 8.78675 20.6533Z" fill="white"/>
<path d="M29.3334 16C29.3334 17.1333 29.1734 18.2133 28.92 19.2667C28.8134 19.28 28.7334 19.2667 28.6267 19.2933C26.8534 19.88 25.04 20.32 23.2134 20.6533C23.56 17.56 23.56 14.44 23.2134 11.3467C25.04 11.68 26.8667 12.1067 28.6267 12.7067C28.7334 12.7333 28.8134 12.7467 28.92 12.7467C29.1734 13.8 29.3334 14.88 29.3334 16Z" fill="white"/>
<path d="M20.6533 23.2139C20.32 25.0539 19.8933 26.8672 19.2933 28.6272C19.2667 28.7339 19.2667 28.8139 19.2533 28.9205C18.2133 29.1739 17.12 29.3339 16 29.3339C14.8667 29.3339 13.7867 29.1739 12.7333 28.9205C12.72 28.8139 12.7333 28.7339 12.7067 28.6272C12.12 26.8539 11.68 25.0539 11.3467 23.2139C12.8933 23.3872 14.44 23.5072 16 23.5072C17.56 23.5072 19.12 23.3872 20.6533 23.2139Z" fill="white"/>
<path d="M21.0179 21.0181C17.6831 21.4388 14.3171 21.4388 10.9823 21.0181C10.5616 17.6833 10.5616 14.3173 10.9823 10.9826C14.3171 10.5618 17.6831 10.5618 21.0179 10.9826C21.4386 14.3173 21.4386 17.6833 21.0179 21.0181Z" fill="white"/>
</svg>
