<svg width="18" height="18" fill="none" xmlns="http://www.w3.org/2000/svg"><path d="M15.278 4.545l-.861.726a5.625 5.625 0 01-.163 7.442l.827.787a6.75 6.75 0 00.197-8.932v-.023z" fill="#fff"/><path d="M12.139 6.75a3.374 3.374 0 01-.101 4.466l.826.765a4.5 4.5 0 00.13-5.957l-.855.726zm-2.014 10.125a.562.562 0 01-.4-.169l-4.286-4.33H1.687a.563.563 0 01-.562-.563V6.188a.563.563 0 01.563-.563h3.751l4.287-4.331a.562.562 0 01.793 0 .563.563 0 01.168.394v14.625a.562.562 0 01-.562.562z" fill="#fff"/></svg>