# WaveFront *.obj file (generated by Cinema 4D)

mtllib ./Heart2.mtl

v 7.265028 27.175710 9.132419
v -4.815700 18.888724 5.097974
v -8.051277 10.703637 11.586746
v 23.239565 -9.611457 4.123238
v 13.529387 -20.193323 4.913963
v 14.463287 -16.581109 -2.398603
v -19.268435 -9.100072 7.034768
v -9.339868 -18.075230 12.704647
v -9.101674 -7.696342 15.503028
v 15.590466 -10.214567 18.675870
v 10.752806 -21.263065 10.516259
v 22.880695 -7.699965 14.576697
v -2.249579 -28.741222 2.076938
v -9.517446 -18.941930 -12.213848
v 0.125398 -27.736308 -0.954327
v 23.036680 8.542600 -7.299447
v 8.236394 4.267592 -15.166256
v 19.715339 18.110503 -8.727454
v 26.840304 13.308187 -4.178905
v 26.356351 3.576827 -3.061731
v 20.137500 18.333594 20.365405
v 20.515125 6.777105 22.687763
v 27.117430 14.362760 18.897434
v -19.316394 25.376566 -16.826002
v -27.965819 18.029813 -16.837706
v -20.972475 25.334363 -8.568887
v -26.085542 6.223741 0.276902
v -16.070872 0.245463 10.356012
v -22.479276 17.141779 -0.008403
v 0.460020 -19.316468 -10.476242
v -4.848274 -10.409969 -18.278734
v 4.487248 -2.292112 -17.065742
v -6.590302 9.116139 -25.322825
v 18.933127 -5.814204 -6.396770
v 7.509161 -12.734304 -11.717060
v -1.204697 -6.426531 -18.853727
v -21.266987 20.335203 -22.494994
v -26.877325 11.489783 -23.153361
v 30.649105 6.404385 2.362021
v 32.881032 13.287683 6.507378
v 8.459548 28.541684 4.454623
v 13.108449 28.201528 -1.245077
v -1.205335 21.915801 -0.218813
v 14.688679 -2.097660 -10.800330
v 4.175459 -26.884120 6.069494
v -2.583878 -24.761112 12.807476
v 6.151488 -17.838016 16.654864
v 21.765075 -11.415003 9.909787
v 30.696929 2.034501 9.357164
v 29.985156 7.747684 16.056352
v -19.284141 -15.137007 2.296300
v -14.571180 -21.463918 -2.845155
v -8.272730 -25.114203 8.859217
v 5.988357 -25.709679 1.307677
v 7.530122 -21.417978 -4.163047
v 20.766555 -8.542478 -2.213559
v 27.500262 -1.356775 1.326805
v -13.334794 -2.540586 -24.523894
v 4.340245 19.552899 -9.308135
v -5.433646 25.973021 -13.811802
v -23.457511 -11.531186 -7.232296
v -19.541594 -13.479680 -12.855529
v -26.907296 1.895278 -21.096755
v -28.812886 -1.423541 -13.199848
v 23.234110 27.623492 4.395579
v 23.751533 23.509759 15.337190
v 31.245020 18.594705 9.871439
v -1.576283 -14.211395 17.757346
v 4.473034 -3.084634 21.350118
v -0.549139 3.291426 19.072618
v 13.267419 8.623681 23.077447
v 10.375731 17.799473 19.712777
v -14.893872 22.734678 -0.252414
v -11.136541 26.763530 -4.873812
v -31.154099 8.248418 -13.664428
v -29.205078 14.684731 -8.356861
v -3.085894 20.268008 -21.132065
v -17.102262 12.700726 -27.032715
v 16.682304 28.972544 8.656511
v 16.080686 24.878907 -6.391401
v 7.315129 13.436457 -13.013879
v 25.261745 22.850953 -2.001682
v -29.102543 1.145781 -5.215258
v -11.923458 24.835126 -20.577369
v -13.491649 18.941831 -25.133060
v -13.013411 27.773666 -12.416369
v 11.654190 -4.377592 21.709885
v 25.452150 4.226139 19.692425
v -20.302360 -6.098189 -20.216825
v -20.641378 3.511797 -25.873961
v 13.741636 25.483357 14.597054
v 6.146000 21.588036 15.241393
# 92 vertices

vn -0.597652 0.629626 0.496348
vn 0.706514 -0.666145 -0.238839
vn -0.612121 -0.192752 0.766897
vn 0.532030 -0.641290 0.552863
vn -0.233926 -0.853221 -0.466095
vn 0.462724 0.028381 -0.886016
vn 0.712133 -0.114979 -0.692552
vn 0.307894 0.197035 0.930761
vn -0.642168 0.756295 -0.124915
vn -0.621246 0.224787 0.750674
vn 0.112621 -0.615879 -0.779697
vn 0.547567 -0.071657 -0.833648
vn 0.621528 -0.224844 -0.750409
vn 0.472041 -0.289877 -0.832531
vn 0.431491 -0.215159 -0.876067
vn -0.659522 0.462469 -0.592526
vn 0.870424 0.014054 -0.492061
vn -0.395409 0.839509 -0.372564
vn 0.520618 -0.130872 -0.843672
vn 0.472695 -0.015037 -0.881067
vn 0.315118 -0.946677 -0.066886
vn 0.296751 -0.721873 0.625152
vn 0.625993 -0.676125 0.388516
vn 0.967244 -0.133014 0.216167
vn -0.716250 -0.675546 0.174767
vn 0.053736 -0.935687 0.348679
vn 0.445131 -0.761141 -0.471696
vn 0.329431 -0.503402 -0.798773
vn 0.815288 -0.531940 0.228611
vn 0.760461 -0.522951 -0.384932
vn 0.339271 -0.710573 -0.616397
vn 0.086618 -0.747806 -0.658198
vn 0.720014 -0.393016 -0.571900
vn 0.432291 -0.591247 -0.680840
vn 0.660347 -0.726872 0.188547
vn 0.299054 -0.782218 0.546468
vn 0.860934 -0.490292 -0.135612
vn 0.963448 -0.224099 -0.146549
vn 0.593055 -0.484854 -0.642769
vn 0.507389 -0.271924 -0.817652
vn 0.913878 -0.341452 -0.219559
vn 0.805962 -0.106920 -0.582180
vn 0.735683 -0.676888 -0.023525
vn 0.833126 -0.551576 0.040387
vn 0.544674 -0.549686 -0.633343
vn 0.591735 -0.706769 -0.387670
vn 0.587357 -0.797263 0.138916
vn 0.357201 -0.929338 -0.093261
vn 0.818528 -0.264011 -0.510164
vn 0.721016 -0.359614 -0.592239
vn 0.339821 -0.258588 -0.904219
vn 0.040887 -0.593638 -0.803661
vn 0.354091 -0.442790 -0.823705
vn 0.285493 -0.387626 -0.876477
vn 0.649073 -0.711665 -0.268679
vn 0.583389 -0.811865 0.021862
vn 0.602582 -0.220478 -0.766988
vn 0.546506 -0.301489 -0.781275
vn 0.731799 -0.565043 -0.380976
vn 0.637972 -0.486521 -0.596895
vn -0.386518 0.807401 -0.445733
vn 0.516176 0.851323 0.093571
vn -0.674295 -0.703016 -0.225935
vn -0.717365 -0.563390 -0.409819
vn 0.648972 0.721718 0.240653
vn 0.700202 0.467626 0.539446
vn -0.364493 -0.100714 0.925726
vn -0.349921 0.223300 0.909772
vn -0.147949 0.649597 0.745701
vn 0.372830 0.914513 0.156934
vn -0.916826 -0.237372 -0.321003
vn -0.786680 0.274262 0.553070
vn 0.586887 0.116676 -0.801184
vn -0.383596 0.308147 -0.870545
vn -0.080706 0.320658 0.943736
vn 0.380742 0.871296 0.309570
vn 0.161880 0.398484 -0.902758
vn 0.788418 0.585912 -0.187226
vn -0.761775 -0.641377 0.090894
vn -0.971577 -0.233285 0.039817
vn 0.236298 0.554107 -0.798165
vn 0.164103 0.934892 -0.314649
vn -0.026475 -0.341966 0.939326
vn 0.368873 -0.313461 0.874999
vn -0.716896 0.562413 0.411962
vn -0.043694 0.770314 0.636105
vn -0.458910 -0.462646 -0.758484
vn -0.371489 0.026057 -0.928041
vn -0.085888 0.577884 0.811562
vn -0.609796 0.637224 0.471216
vn -0.513207 0.298889 0.804521
vn -0.484209 0.328780 0.810791
vn 0.123802 0.984824 -0.121423
vn 0.396973 0.791501 -0.464659
vn -0.018583 0.511478 -0.859057
vn 0.701366 0.586481 -0.405080
vn -0.711232 -0.006425 0.702878
vn -0.876840 -0.425980 0.222870
vn 0.550614 -0.426551 0.717510
vn 0.801484 -0.410284 0.435045
vn 0.621427 0.702011 -0.347791
vn 0.375161 0.785596 -0.491980
vn -0.336854 -0.847628 -0.409892
vn -0.510427 -0.859887 0.006475
vn 0.114509 -0.133732 -0.984363
vn 0.320928 0.243101 -0.915357
vn -0.783668 0.608303 0.125471
vn -0.918020 0.185559 -0.350396
vn -0.895968 -0.090373 -0.434773
vn -0.569150 -0.170610 -0.804304
vn -0.318496 0.946053 -0.059075
vn -0.299274 0.826344 0.477037
vn -0.705350 -0.419184 0.571598
vn -0.067204 -0.418555 0.905651
vn -0.408869 -0.801517 -0.436283
vn -0.161853 -0.616195 -0.770759
vn -0.957813 0.058072 0.281344
vn -0.952394 0.304185 -0.019145
vn -0.370582 0.535768 0.758674
vn -0.479379 0.674635 0.561278
vn -0.716587 -0.429499 0.549547
vn -0.851347 -0.322491 0.413712
vn -0.321567 0.727257 0.606320
vn -0.015427 0.997268 -0.072157
vn 0.425573 0.459895 0.779323
vn 0.076604 0.666670 0.741359
vn -0.146286 0.629073 -0.763429
vn -0.109205 0.930492 -0.349611
vn -0.310246 0.093544 0.946004
vn 0.269690 -0.294676 0.916725
vn -0.820199 -0.118027 0.559721
vn -0.905514 0.089397 0.414733
vn -0.258458 -0.496840 -0.828440
vn 0.060126 -0.147615 -0.987190
vn 0.572873 0.077053 -0.815976
vn 0.460923 0.500426 -0.732850
vn 0.640740 0.269908 -0.718734
vn 0.843495 0.248216 -0.476263
vn -0.481504 -0.475211 0.736386
vn -0.176801 -0.924585 0.337416
vn -0.584896 0.808619 0.063170
vn 0.137247 0.817821 0.558807
vn 0.103140 0.199162 0.974492
vn 0.025985 -0.107771 0.993810
vn 0.688263 0.230632 -0.687801
vn 0.233195 0.244389 -0.941182
vn -0.399270 0.012957 0.916715
vn -0.511132 0.297094 0.806482
vn 0.512245 -0.016765 0.858642
vn 0.863415 0.170428 0.474785
vn 0.940102 0.079748 0.331422
vn 0.856117 0.437842 -0.274428
vn -0.373670 -0.364497 0.852902
vn -0.451581 -0.222574 0.864012
vn 0.242573 0.967643 0.069195
vn -0.207460 0.961449 0.180382
vn -0.902630 -0.418167 0.101831
vn -0.747109 -0.583671 -0.318031
vn -0.196930 0.767870 -0.609514
vn 0.275018 0.872284 -0.404273
vn -0.503369 0.113498 0.856564
vn -0.634261 -0.056946 0.770996
vn 0.122750 0.827994 0.547117
vn -0.145877 0.882849 0.446350
vn -0.246180 0.764781 -0.595378
vn -0.588827 0.693829 -0.414508
vn -0.330685 -0.683243 -0.650979
vn -0.632030 -0.578870 -0.515196
vn -0.491503 0.377544 0.784748
vn -0.249038 0.609922 0.752288
vn 0.646825 -0.046507 0.761202
vn 0.741504 -0.393084 0.543684
vn 0.214119 0.169015 -0.962047
vn -0.228715 0.402151 -0.886537
vn -0.094774 -0.258837 0.961242
vn -0.067018 -0.096140 0.993080
vn 0.121402 -0.392060 0.911890
vn 0.386293 -0.651409 0.652972
vn -0.583050 0.807736 0.086971
vn -0.170648 0.956688 0.235817
# 180 normals

o Love
usemtl ???????
f 1//1 2//1 3//1
f 4//2 5//2 6//2
f 7//3 8//3 9//3
f 10//4 11//4 12//4
f 13//5 14//5 15//5
f 16//6 17//6 18//6
f 19//7 20//7 16//7
f 21//8 22//8 23//8
f 24//9 25//9 26//9
f 27//10 28//10 29//10
f 30//11 14//11 31//11
f 32//12 33//12 17//12
f 20//13 34//13 16//13
f 35//14 36//14 32//14
f 32//15 36//15 33//15
f 37//16 38//16 25//16
f 39//17 19//17 40//17
f 41//18 42//18 43//18
f 16//19 44//19 32//19
f 16//20 32//20 17//20
f 15//21 45//21 13//21
f 46//22 11//22 47//22
f 11//23 48//23 12//23
f 49//24 40//24 50//24
f 51//25 52//25 53//25
f 13//26 45//26 46//26
f 54//27 15//27 55//27
f 30//28 31//28 35//28
f 48//29 49//29 12//29
f 4//30 56//30 57//30
f 55//31 15//31 30//31
f 15//32 14//32 30//32
f 57//33 56//33 34//33
f 55//34 30//34 35//34
f 11//35 5//35 48//35
f 46//36 45//36 11//36
f 49//37 4//37 57//37
f 40//38 49//38 39//38
f 6//39 35//39 34//39
f 35//40 32//40 44//40
f 39//41 49//41 57//41
f 39//42 20//42 19//42
f 48//43 5//43 4//43
f 48//44 4//44 49//44
f 35//45 6//45 55//45
f 6//46 54//46 55//46
f 11//47 45//47 5//47
f 45//48 15//48 54//48
f 39//49 57//49 20//49
f 20//50 57//50 34//50
f 36//51 58//51 33//51
f 31//52 14//52 58//52
f 35//53 31//53 36//53
f 31//54 58//54 36//54
f 5//55 54//55 6//55
f 54//56 5//56 45//56
f 34//57 44//57 16//57
f 34//58 35//58 44//58
f 4//59 6//59 56//59
f 6//60 34//60 56//60
f 42//61 59//61 43//61
f 60//62 43//62 59//62
f 61//63 62//63 52//63
f 63//64 62//64 64//64
f 65//65 66//65 67//65
f 67//66 66//66 23//66
f 68//67 69//67 9//67
f 70//68 71//68 72//68
f 2//69 73//69 3//69
f 43//70 60//70 74//70
f 63//71 64//71 75//71
f 76//72 27//72 29//72
f 17//73 33//73 77//73
f 37//74 78//74 38//74
f 72//75 71//75 21//75
f 79//76 66//76 65//76
f 80//77 18//77 81//77
f 82//78 65//78 67//78
f 52//79 51//79 61//79
f 64//80 83//80 75//80
f 84//81 77//81 85//81
f 60//82 84//82 86//82
f 68//83 47//83 87//83
f 22//84 10//84 88//84
f 29//85 26//85 76//85
f 2//86 74//86 73//86
f 89//87 63//87 90//87
f 38//88 78//88 90//88
f 21//89 91//89 72//89
f 1//90 3//90 92//90
f 28//91 3//91 29//91
f 3//92 70//92 72//92
f 42//93 79//93 65//93
f 65//94 82//94 80//94
f 81//95 59//95 80//95
f 77//96 59//96 81//96
f 7//97 28//97 27//97
f 61//98 51//98 83//98
f 12//99 88//99 10//99
f 12//100 49//100 50//100
f 59//101 77//101 60//101
f 77//102 84//102 60//102
f 52//103 14//103 13//103
f 52//104 13//104 53//104
f 33//105 58//105 78//105
f 33//106 85//106 77//106
f 76//107 26//107 25//107
f 38//108 75//108 25//108
f 63//109 75//109 38//109
f 38//110 90//110 63//110
f 86//111 24//111 26//111
f 74//112 26//112 73//112
f 53//113 8//113 7//113
f 46//114 47//114 68//114
f 52//115 62//115 14//115
f 58//116 14//116 89//116
f 76//117 75//117 83//117
f 25//118 75//118 76//118
f 29//119 3//119 73//119
f 73//120 26//120 29//120
f 53//121 7//121 51//121
f 83//122 51//122 7//122
f 92//123 91//123 1//123
f 42//124 41//124 79//124
f 66//125 21//125 23//125
f 66//126 91//126 21//126
f 37//127 84//127 85//127
f 84//128 24//128 86//128
f 69//129 71//129 70//129
f 87//130 10//130 22//130
f 83//131 7//131 27//131
f 76//132 83//132 27//132
f 58//133 89//133 90//133
f 58//134 90//134 78//134
f 18//135 19//135 16//135
f 18//136 80//136 82//136
f 19//137 18//137 82//137
f 82//138 40//138 19//138
f 53//139 46//139 8//139
f 53//140 13//140 46//140
f 43//141 2//141 41//141
f 43//142 74//142 2//142
f 71//143 22//143 21//143
f 87//144 22//144 71//144
f 17//145 77//145 81//145
f 17//146 81//146 18//146
f 9//147 69//147 70//147
f 28//148 70//148 3//148
f 88//149 23//149 22//149
f 50//150 67//150 23//150
f 40//151 67//151 50//151
f 82//152 67//152 40//152
f 46//153 68//153 8//153
f 9//154 8//154 68//154
f 74//155 60//155 86//155
f 86//156 26//156 74//156
f 64//157 61//157 83//157
f 62//158 61//158 64//158
f 42//159 80//159 59//159
f 65//160 80//160 42//160
f 9//161 70//161 28//161
f 7//162 9//162 28//162
f 91//163 66//163 79//163
f 79//164 1//164 91//164
f 24//165 84//165 37//165
f 24//166 37//166 25//166
f 89//167 14//167 62//167
f 89//168 62//168 63//168
f 72//169 92//169 3//169
f 72//170 91//170 92//170
f 88//171 50//171 23//171
f 12//172 50//172 88//172
f 33//173 78//173 85//173
f 37//174 85//174 78//174
f 68//175 87//175 69//175
f 69//176 87//176 71//176
f 47//177 10//177 87//177
f 47//178 11//178 10//178
f 41//179 2//179 1//179
f 79//180 41//180 1//180

